<svg width="35" height="32" viewBox="0 0 35 32" fill="none" xmlns="http://www.w3.org/2000/svg">
<path d="M5.8254 8.70306C5.25135 8.70456 4.6827 8.59222 4.15235 8.37253C3.622 8.15284 3.14047 7.83017 2.73563 7.42318L0.487467 5.42254C0.198996 5.16535 0.0245089 4.8041 0.0023906 4.41826C-0.0197277 4.03242 0.112335 3.65359 0.369526 3.36512C0.626717 3.07665 0.987968 2.90216 1.37381 2.88004C1.75965 2.85793 2.13848 2.98999 2.42695 3.24718L4.73481 5.30606C4.86693 5.45442 5.02801 5.57419 5.20814 5.65797C5.38828 5.74176 5.58365 5.7878 5.78224 5.79325C5.98083 5.79871 6.17844 5.76347 6.3629 5.6897C6.54736 5.61593 6.71478 5.50519 6.85484 5.3643L12.1025 0.368538C12.3847 0.117324 12.7535 -0.0143793 13.1309 0.00124725C13.5084 0.0168738 13.865 0.178606 14.1255 0.452284C14.3859 0.725962 14.5298 1.09016 14.5267 1.46794C14.5236 1.84573 14.3738 2.20753 14.109 2.47692L8.88314 7.44793C8.48094 7.84779 8.00386 8.16446 7.47919 8.37982C6.95452 8.59519 6.39255 8.70502 5.8254 8.70306ZM34.9467 5.79093C34.9467 5.40475 34.7933 5.0344 34.5202 4.76133C34.2472 4.48827 33.8768 4.33486 33.4907 4.33486H18.93C18.5438 4.33486 18.1735 4.48827 17.9004 4.76133C17.6273 5.0344 17.4739 5.40475 17.4739 5.79093C17.4739 6.1771 17.6273 6.54746 17.9004 6.82052C18.1735 7.09359 18.5438 7.24699 18.93 7.24699H33.4907C33.8768 7.24699 34.2472 7.09359 34.5202 6.82052C34.7933 6.54746 34.9467 6.1771 34.9467 5.79093ZM8.88314 19.0965L14.109 14.1254C14.2548 13.9956 14.3731 13.8377 14.4567 13.6612C14.5403 13.4848 14.5875 13.2933 14.5956 13.0981C14.6037 12.903 14.5724 12.7083 14.5037 12.5255C14.435 12.3427 14.3302 12.1756 14.1955 12.0341C14.0609 11.8927 13.8992 11.7797 13.72 11.702C13.5409 11.6244 13.3479 11.5835 13.1526 11.5819C12.9574 11.5803 12.7638 11.618 12.5834 11.6928C12.4029 11.7675 12.2394 11.8778 12.1025 12.0171L6.86067 17.0128C6.58348 17.2779 6.21474 17.4258 5.83123 17.4258C5.44771 17.4258 5.07898 17.2779 4.80179 17.0128L2.48665 14.705C2.21203 14.4397 1.84422 14.293 1.46245 14.2963C1.08067 14.2996 0.715472 14.4527 0.445505 14.7227C0.175539 14.9927 0.0224061 15.3579 0.0190885 15.7396C0.015771 16.1214 0.162534 16.4892 0.427768 16.7638L2.73563 19.0717C3.55055 19.8868 4.6546 20.3468 5.8072 20.3514C6.9598 20.3561 8.06751 19.905 8.88897 19.0965H8.88314ZM34.9467 17.4395C34.9467 17.0533 34.7933 16.6829 34.5202 16.4099C34.2472 16.1368 33.8768 15.9834 33.4907 15.9834H18.93C18.5438 15.9834 18.1735 16.1368 17.9004 16.4099C17.6273 16.6829 17.4739 17.0533 17.4739 17.4395C17.4739 17.8256 17.6273 18.196 17.9004 18.469C18.1735 18.7421 18.5438 18.8955 18.93 18.8955H33.4907C33.8768 18.8955 34.2472 18.7421 34.5202 18.469C34.7933 18.196 34.9467 17.8256 34.9467 17.4395ZM8.88314 30.745L14.1031 25.774C14.249 25.6441 14.3672 25.4863 14.4508 25.3098C14.5344 25.1333 14.5817 24.9418 14.5898 24.7467C14.5978 24.5516 14.5666 24.3568 14.4979 24.174C14.4291 23.9912 14.3243 23.8241 14.1897 23.6827C14.0551 23.5412 13.8934 23.4283 13.7142 23.3506C13.5351 23.2729 13.3421 23.232 13.1468 23.2304C12.9515 23.2288 12.7579 23.2665 12.5775 23.3413C12.3971 23.4161 12.2336 23.5263 12.0967 23.6656L6.85484 28.6614C6.71478 28.8022 6.54736 28.913 6.3629 28.9867C6.17844 29.0605 5.98083 29.0958 5.78224 29.0903C5.58365 29.0848 5.38828 29.0388 5.20814 28.955C5.02801 28.8712 4.86693 28.7515 4.73481 28.6031L2.42695 26.5442C2.13848 26.287 1.75965 26.155 1.37381 26.1771C0.987968 26.1992 0.626717 26.3737 0.369526 26.6622C0.112335 26.9506 -0.0197277 27.3295 0.0023906 27.7153C0.0245089 28.1012 0.198996 28.4624 0.487467 28.7196L2.73563 30.7202C3.55055 31.5353 4.6546 31.9953 5.8072 32C6.9598 32.0046 8.06751 31.5535 8.88897 30.745H8.88314ZM34.9467 29.088C34.9467 28.7018 34.7933 28.3315 34.5202 28.0584C34.2472 27.7853 33.8768 27.6319 33.4907 27.6319H18.93C18.5438 27.6319 18.1735 27.7853 17.9004 28.0584C17.6273 28.3315 17.4739 28.7018 17.4739 29.088C17.4739 29.4742 17.6273 29.8445 17.9004 30.1176C18.1735 30.3906 18.5438 30.544 18.93 30.544H33.4907C33.8768 30.544 34.2472 30.3906 34.5202 30.1176C34.7933 29.8445 34.9467 29.4742 34.9467 29.088Z" fill="white"/>
</svg>
