<svg width="20" height="16" viewBox="0 0 20 16" fill="none" xmlns="http://www.w3.org/2000/svg">
<path d="M0 0.857139C0 0.462496 0.319821 0.142853 0.714286 0.142853H19.2857C19.6786 0.142853 20 0.462496 20 0.857139C20 1.25178 19.6786 1.57142 19.2857 1.57142H0.714286C0.319821 1.57142 0 1.25178 0 0.857139ZM0 8C0 7.60714 0.319821 7.28571 0.714286 7.28571H19.2857C19.6786 7.28571 20 7.60714 20 8C20 8.39285 19.6786 8.71428 19.2857 8.71428H0.714286C0.319821 8.71428 0 8.39285 0 8ZM19.2857 15.8571H0.714286C0.319821 15.8571 0 15.5357 0 15.1429C0 14.75 0.319821 14.4286 0.714286 14.4286H19.2857C19.6786 14.4286 20 14.75 20 15.1429C20 15.5357 19.6786 15.8571 19.2857 15.8571Z" fill="white"/>
</svg>
