<svg width="201" height="42" viewBox="0 0 201 42" fill="none" xmlns="http://www.w3.org/2000/svg">
<g clip-path="url(#clip0_416_262)">
<path d="M74.8629 9.76703C74.1976 9.41968 73.3557 9.25484 72.3549 9.25484H58.4314V23.7611H63.7712V19.6812H72.3549C73.026 19.6812 73.6147 19.6106 74.1387 19.4575C74.9158 19.2338 75.5399 18.8217 75.9461 18.2271C76.3523 17.6325 76.5466 16.8789 76.5466 15.9899V12.9521C76.5466 12.3574 76.4642 11.8276 76.2817 11.3625C76.0168 10.6619 75.5281 10.1144 74.8629 9.76703ZM71.2775 13.7468V15.3011C71.2775 15.3894 71.2657 15.4601 71.2481 15.5071C71.2186 15.5778 71.1951 15.6072 71.1303 15.6426C71.0714 15.6779 70.9596 15.7073 70.7947 15.7073H63.7653V13.3406H70.7947C70.9066 13.3406 70.989 13.3524 71.0538 13.3701C71.148 13.3995 71.1833 13.4348 71.2186 13.476C71.2481 13.5231 71.2775 13.5997 71.2775 13.741V13.7468Z" fill="#272725"/>
<path d="M78.4189 23.7611H95.7335V19.693H83.7587V17.8032H92.9253V14.8478H83.7587V13.3465H95.7335V9.25484H78.4189V23.7611Z" fill="#272725"/>
<path d="M113.731 18.5627C114.396 18.3036 114.914 17.8797 115.256 17.3028C115.597 16.7317 115.756 16.0252 115.756 15.2069V12.9462C115.756 12.3516 115.674 11.8217 115.491 11.3566C115.226 10.656 114.738 10.1085 114.072 9.76114C113.407 9.41379 112.565 9.24895 111.564 9.24895H97.6409V23.7553H102.981V18.8982H106.784L110.77 23.7553H116.439V23.1548L112.807 18.804C113.136 18.7452 113.448 18.6686 113.731 18.5568V18.5627ZM110.493 13.6939V14.9302C110.493 15.0244 110.481 15.095 110.463 15.148C110.434 15.2246 110.405 15.254 110.346 15.2893C110.287 15.3246 110.175 15.3541 110.016 15.3541H102.987V13.2759H110.016C110.122 13.2759 110.21 13.2876 110.269 13.3053C110.363 13.3347 110.399 13.3701 110.434 13.4172C110.463 13.4643 110.493 13.5526 110.493 13.6939Z" fill="#272725"/>
<path d="M117.746 23.7611H123.086V17.8032H131.646V14.8478H123.086V13.3465H134.89V9.25484H117.746V23.7611Z" fill="#272725"/>
<path d="M152.51 9.76703C151.845 9.41968 151.003 9.25484 150.002 9.25484H140.188C139.517 9.25484 138.928 9.32548 138.404 9.47855C137.627 9.70227 137.003 10.1144 136.597 10.7149C136.191 11.3095 135.997 12.0631 135.997 12.9521V20.0698C135.997 20.6644 136.079 21.1943 136.262 21.6594C136.526 22.36 137.015 22.9075 137.68 23.2548C138.346 23.6022 139.187 23.767 140.188 23.767H150.002C150.674 23.767 151.262 23.6964 151.786 23.5433C152.563 23.3196 153.188 22.9075 153.594 22.3129C154 21.7183 154.194 20.9647 154.194 20.0757V12.9579C154.194 12.3633 154.112 11.8335 153.929 11.3684C153.664 10.6678 153.176 10.1203 152.51 9.77292V9.76703ZM148.849 13.7468V19.2691C148.849 19.3633 148.837 19.4399 148.819 19.487C148.79 19.5635 148.76 19.5929 148.707 19.6283C148.648 19.6636 148.548 19.693 148.389 19.693H141.801C141.695 19.693 141.613 19.6812 141.554 19.6636C141.466 19.6341 141.431 19.6047 141.401 19.5517C141.372 19.5046 141.342 19.4163 141.342 19.2691V13.7468C141.342 13.6527 141.354 13.5879 141.372 13.5408C141.401 13.4701 141.425 13.4407 141.484 13.4054C141.542 13.3701 141.643 13.3465 141.801 13.3465H148.389C148.495 13.3465 148.578 13.3583 148.637 13.3759C148.725 13.4054 148.76 13.4348 148.79 13.4819C148.819 13.529 148.849 13.6114 148.849 13.7468Z" fill="#272725"/>
<path d="M172.527 18.5627C173.193 18.3036 173.711 17.8797 174.052 17.3028C174.394 16.7317 174.552 16.0252 174.552 15.2069V12.9462C174.552 12.3516 174.47 11.8217 174.288 11.3566C174.023 10.656 173.534 10.1085 172.869 9.76114C172.203 9.41379 171.362 9.24895 170.361 9.24895H156.437V23.7553H161.777V18.8982H165.58L169.566 23.7553H175.235V23.1548L171.603 18.804C171.933 18.7452 172.245 18.6686 172.527 18.5568V18.5627ZM169.289 13.6939V14.9302C169.289 15.0244 169.277 15.095 169.26 15.148C169.23 15.2246 169.201 15.254 169.142 15.2893C169.083 15.3246 168.971 15.3541 168.812 15.3541H161.783V13.2759H168.812C168.918 13.2759 169.007 13.2876 169.066 13.3053C169.16 13.3347 169.195 13.3701 169.23 13.4172C169.26 13.4643 169.289 13.5526 169.289 13.6939Z" fill="#272725"/>
<path d="M200.38 10.815C200.204 10.3028 199.868 9.89656 199.409 9.63751C198.95 9.37847 198.378 9.26073 197.713 9.26073H195.682C195.182 9.26073 194.746 9.34315 194.369 9.53154C193.998 9.71405 193.698 10.0025 193.492 10.3675L188.523 18.6804L183.56 10.3675C183.354 10.0025 183.054 9.71994 182.683 9.53154C182.306 9.34904 181.87 9.26073 181.37 9.26073H179.339C178.891 9.26073 178.491 9.31371 178.138 9.42557C177.608 9.59042 177.178 9.90244 176.902 10.344C176.625 10.7855 176.495 11.3331 176.495 11.9689V23.767H181.288V16.1312L185.291 22.6661C185.503 23.0193 185.786 23.3019 186.127 23.4903C186.468 23.6787 186.863 23.767 187.293 23.767H189.759C190.189 23.767 190.584 23.6787 190.925 23.4903C191.267 23.3019 191.549 23.0193 191.761 22.6661L195.764 16.1312V23.767H200.557V11.9689C200.557 11.545 200.498 11.1564 200.38 10.815Z" fill="#272725"/>
<path d="M62.5937 32.4331C62.6172 32.4979 62.6113 32.545 62.5643 32.5803C62.5407 32.598 62.5113 32.6039 62.4701 32.6039C62.4347 32.6039 62.3935 32.6039 62.3523 32.6039H62.1168C62.0403 32.6039 61.9755 32.5862 61.9284 32.5509C61.8872 32.5273 61.8637 32.4861 61.8519 32.4331C61.8401 32.3802 61.8283 32.3272 61.8166 32.2742C61.8166 32.2565 61.8107 32.233 61.8107 32.2212V32.1741C61.8107 32.1741 61.7989 32.127 61.8048 32.1093C61.8048 32.0917 61.8048 32.0681 61.8048 32.0505C61.8048 32.021 61.7989 31.9916 61.7989 31.9622V31.8738L61.7754 31.5383C61.7636 31.5029 61.7577 31.4676 61.7577 31.4323C61.7577 31.397 61.7577 31.3617 61.7459 31.3204C61.7224 31.2321 61.7047 31.1438 61.6929 31.0555C61.6812 30.9672 61.6576 30.8848 61.6223 30.8024C61.5281 30.5963 61.375 30.455 61.1572 30.3844C61.0924 30.3608 61.0218 30.349 60.9452 30.3431C60.8687 30.3431 60.7863 30.3431 60.7039 30.3431H59.338C59.3027 30.3549 59.2732 30.3608 59.2438 30.3667C59.2144 30.3726 59.1908 30.3902 59.1732 30.4138C59.1378 30.4609 59.1202 30.5433 59.1261 30.6552C59.132 30.767 59.1261 30.8671 59.1261 30.9495V32.0269C59.1261 32.0976 59.1261 32.18 59.132 32.2801C59.132 32.3802 59.132 32.4567 59.1025 32.5097C59.0907 32.545 59.0731 32.5685 59.0436 32.5744C59.026 32.5862 59.0024 32.5921 58.9907 32.5921C58.9789 32.5921 58.9494 32.5921 58.9259 32.6039C58.9082 32.6039 58.8847 32.6098 58.8611 32.6039C58.8376 32.6039 58.814 32.6039 58.7846 32.6039C58.7316 32.6039 58.6786 32.6039 58.6256 32.6039C58.5727 32.6039 58.5315 32.5862 58.4961 32.5627C58.4549 32.5391 58.4373 32.492 58.4373 32.4273V27.7174C58.4373 27.6644 58.4373 27.6056 58.4373 27.5467C58.4373 27.4878 58.4431 27.4407 58.4726 27.4054C58.4902 27.3759 58.5315 27.3524 58.5844 27.3288C58.5962 27.3288 58.6021 27.323 58.6139 27.3288C58.6256 27.3288 58.6315 27.3288 58.6433 27.3288H60.7981C60.8334 27.3288 60.8687 27.3288 60.9099 27.3288C60.9511 27.3288 60.9865 27.3288 61.0159 27.3288H61.0983C61.1278 27.3288 61.1572 27.3347 61.1866 27.3406C61.2161 27.3406 61.2514 27.3465 61.2808 27.3524C61.322 27.3642 61.3632 27.3701 61.4045 27.3759C61.4457 27.3759 61.4869 27.3877 61.5281 27.3995C61.6223 27.4289 61.7106 27.4643 61.7871 27.4937C61.8637 27.529 61.9402 27.5702 62.0108 27.6173C62.1345 27.6998 62.2346 27.8057 62.3111 27.9235C62.3876 28.0471 62.4524 28.1884 62.4995 28.3532C62.5113 28.3945 62.5172 28.4357 62.5172 28.4769C62.5172 28.5181 62.523 28.5593 62.5348 28.6005V28.677C62.5348 28.677 62.5407 28.73 62.5348 28.7654C62.5289 28.8007 62.5289 28.8242 62.523 28.8537V28.9361C62.5113 28.9773 62.5054 29.0126 62.5054 29.0479C62.5054 29.0833 62.4995 29.1186 62.4877 29.1539C62.4642 29.2304 62.4406 29.3011 62.4171 29.3659C62.3935 29.4306 62.3641 29.4954 62.3229 29.5543C62.3052 29.5778 62.2934 29.6013 62.2758 29.619C62.2581 29.6367 62.2404 29.6602 62.2287 29.6838C62.2287 29.6838 62.2169 29.6897 62.211 29.6955C62.211 29.6955 62.1992 29.7014 62.1934 29.7073C62.1816 29.7191 62.1698 29.7309 62.158 29.7426C62.1463 29.7603 62.1345 29.7721 62.1227 29.778C62.0815 29.8074 62.0462 29.8368 62.0108 29.8663C61.9755 29.8957 61.9402 29.9193 61.899 29.9428C61.8754 29.9546 61.8519 29.9722 61.8342 29.9899C61.8166 30.0076 61.8048 30.0311 61.7989 30.0606C61.7989 30.09 61.8048 30.1135 61.8342 30.1371C61.8637 30.1548 61.8872 30.1724 61.9049 30.1842C61.9579 30.2195 62.0108 30.2548 62.0579 30.296C62.105 30.3373 62.1463 30.3844 62.1816 30.4373C62.2346 30.508 62.2758 30.5845 62.2993 30.6728C62.3229 30.7611 62.3464 30.8495 62.3759 30.9495C62.3759 30.9908 62.3876 31.0261 62.3935 31.0673C62.3935 31.1026 62.4053 31.1438 62.4112 31.185C62.423 31.2204 62.423 31.2557 62.4171 31.291C62.4171 31.3263 62.4171 31.3617 62.423 31.397V31.4617C62.4347 31.4971 62.4347 31.5324 62.4288 31.5736C62.4288 31.6148 62.4288 31.6501 62.4347 31.6913C62.4347 31.709 62.4406 31.7267 62.4347 31.7443C62.4347 31.762 62.4347 31.7796 62.4347 31.8091C62.4465 31.8562 62.4524 31.9092 62.4583 31.9622C62.4583 32.0151 62.4759 32.0622 62.4877 32.1093C62.4995 32.1388 62.5054 32.1682 62.5054 32.1976C62.5054 32.2271 62.5113 32.2506 62.523 32.286L62.5878 32.4626L62.5937 32.4331ZM61.6929 29.3541C61.7283 29.3011 61.7518 29.2422 61.7695 29.1833C61.7871 29.1245 61.8048 29.0597 61.8166 28.9891V28.9243C61.8342 28.8537 61.8342 28.7771 61.8225 28.6947C61.8107 28.6123 61.7989 28.5475 61.7754 28.4886C61.6988 28.2414 61.5399 28.0707 61.3103 27.9765C61.2102 27.9352 61.0983 27.9117 60.9629 27.9117C60.8334 27.9117 60.698 27.9058 60.5567 27.9058H59.3321C59.3321 27.9058 59.3086 27.9117 59.2968 27.9117C59.285 27.9117 59.2733 27.9117 59.2556 27.9176C59.1967 27.9294 59.1555 27.9647 59.1378 28.0118C59.1202 28.0589 59.1084 28.1177 59.1143 28.2002C59.1143 28.2826 59.1143 28.3532 59.1143 28.418V29.2717C59.1143 29.3482 59.1143 29.4247 59.1143 29.5072C59.1143 29.5896 59.1261 29.6543 59.1614 29.6955C59.1849 29.7309 59.2203 29.7485 59.2733 29.7603C59.3203 29.7662 59.3792 29.7721 59.4381 29.7721H59.8973C60.0916 29.7721 60.28 29.7721 60.4625 29.7721C60.645 29.7721 60.8157 29.7662 60.9688 29.7426C61.1219 29.7191 61.2632 29.6779 61.3868 29.619C61.5104 29.5601 61.6105 29.4718 61.6812 29.3541H61.6929Z" fill="#272725"/>
<path d="M72.0076 29.8663C72.0076 29.8663 72.0134 29.9251 72.0134 29.9722C72.0134 30.0193 72.0134 30.0547 72.0076 30.0782V30.1665C71.9958 30.2136 71.9899 30.2666 71.9899 30.3196C71.9899 30.3726 71.9899 30.4197 71.9722 30.4668C71.9605 30.508 71.9546 30.5433 71.9487 30.5786C71.9487 30.614 71.9369 30.6493 71.9369 30.6905C71.9134 30.7729 71.8898 30.8553 71.8721 30.9378C71.8545 31.0143 71.825 31.0908 71.7956 31.1674C71.6484 31.5265 71.4541 31.8326 71.2128 32.074C70.9714 32.3154 70.6594 32.5038 70.2708 32.6333C70.2178 32.651 70.1589 32.6627 70.106 32.6686C70.053 32.6745 69.9941 32.6922 69.9411 32.704C69.9176 32.704 69.894 32.7098 69.8764 32.7098C69.8587 32.7098 69.8351 32.7098 69.8175 32.7157L69.5702 32.7393C69.5702 32.7393 69.5231 32.7452 69.4701 32.7393C69.4171 32.7334 69.3818 32.7334 69.37 32.7275C69.3465 32.7275 69.3229 32.7216 69.2994 32.7275C69.2758 32.7275 69.2582 32.7275 69.2346 32.7275H69.1522C69.1169 32.7157 69.0816 32.7098 69.0521 32.7098C69.0227 32.7098 68.9874 32.704 68.952 32.6981C68.9049 32.6863 68.852 32.6745 68.8049 32.6627C68.7578 32.6569 68.7107 32.6451 68.6577 32.6274C68.6106 32.6098 68.5576 32.5862 68.5105 32.5685C68.4634 32.5509 68.4104 32.5273 68.3633 32.5097C68.0631 32.3743 67.8099 32.1918 67.6156 31.9563C67.4213 31.7208 67.2565 31.45 67.127 31.1379C67.0975 31.0673 67.074 30.9966 67.0622 30.9201C67.0446 30.8436 67.0269 30.767 67.0033 30.6905C66.9916 30.6728 66.9916 30.6552 66.9916 30.6375C66.9916 30.6199 66.9916 30.6022 66.9798 30.5786C66.968 30.5433 66.9621 30.508 66.9621 30.4668C66.9621 30.4256 66.9621 30.3902 66.9445 30.349C66.9327 30.3314 66.9327 30.3078 66.9327 30.2902C66.9327 30.2725 66.9327 30.2548 66.9327 30.2372V30.0841C66.9327 30.0841 66.915 30.0252 66.915 29.9781C66.915 29.931 66.915 29.9016 66.9327 29.8722V29.778L66.9562 29.513C66.968 29.4836 66.9739 29.4542 66.9739 29.4247C66.9739 29.3953 66.9739 29.3659 66.9857 29.3364C67.0033 29.2599 67.021 29.1775 67.0387 29.1009C67.0504 29.0244 67.074 28.9537 67.1034 28.8831C67.1446 28.7889 67.18 28.6947 67.2153 28.6064C67.2506 28.5181 67.2918 28.4357 67.3507 28.3532C67.492 28.1295 67.651 27.9352 67.8393 27.7763C68.0277 27.6173 68.2515 27.4819 68.5105 27.3759C68.5635 27.3524 68.6224 27.3289 68.6871 27.3171C68.7519 27.2994 68.8107 27.2876 68.8755 27.2641C68.9049 27.2523 68.9344 27.2464 68.9697 27.2464C69.005 27.2464 69.0345 27.2464 69.0639 27.2347C69.1051 27.2347 69.1404 27.2288 69.1816 27.2229C69.217 27.2229 69.2582 27.217 69.2994 27.2111C69.3112 27.2111 69.3229 27.2111 69.3347 27.2111C69.3524 27.2111 69.3642 27.2111 69.37 27.2111C69.6997 27.1993 69.9941 27.2347 70.2414 27.3112C70.4886 27.3877 70.7065 27.4937 70.8949 27.6291C70.9714 27.6762 71.042 27.7292 71.1127 27.7822C71.1833 27.8352 71.2422 27.8999 71.3011 27.9706C71.3187 27.9941 71.3305 28.0177 71.3541 28.0294C71.3717 28.0412 71.3894 28.0648 71.407 28.0883C71.4365 28.1295 71.4659 28.1707 71.4954 28.2119C71.5248 28.2532 71.5542 28.2944 71.5778 28.3356C71.5896 28.3591 71.5954 28.3827 71.6072 28.4003C71.619 28.418 71.6308 28.4415 71.6425 28.4651C71.6602 28.4945 71.6779 28.524 71.6955 28.5534C71.7367 28.6417 71.7721 28.7359 71.8133 28.836C71.825 28.8654 71.8309 28.8949 71.8368 28.9243C71.8427 28.9537 71.8545 28.9773 71.8604 29.0067C71.878 29.0538 71.8898 29.1068 71.9016 29.1598C71.9134 29.2128 71.9251 29.2658 71.9428 29.3188C71.9546 29.3423 71.9605 29.3659 71.9605 29.3953C71.9605 29.4247 71.9605 29.4424 71.9663 29.4718C71.9781 29.5072 71.984 29.5425 71.984 29.5778C71.984 29.6131 71.984 29.6484 72.0017 29.6897V29.7368C72.0017 29.7368 72.0017 29.7839 72.0017 29.8133C72.0017 29.8368 72.0017 29.8604 72.0076 29.8898V29.8663ZM71.307 30.1018C71.307 30.1018 71.3246 30.0311 71.3246 29.9722C71.3246 29.9134 71.3246 29.8663 71.307 29.8427V29.7839C71.307 29.7839 71.307 29.7368 71.307 29.7191C71.307 29.7014 71.307 29.6779 71.307 29.6543C71.2952 29.6308 71.2952 29.6072 71.2952 29.5837C71.2952 29.5601 71.2952 29.5366 71.2834 29.513C71.2716 29.4659 71.2658 29.4247 71.2599 29.3776C71.254 29.3305 71.2422 29.2893 71.2363 29.254C71.2128 29.1833 71.1892 29.1186 71.1716 29.0597C71.1539 29.0008 71.1303 28.9361 71.1068 28.8772C71.0244 28.677 70.9066 28.4886 70.7594 28.3297C70.6123 28.1707 70.4415 28.0412 70.2414 27.9529C70.1295 27.9058 70.0059 27.8646 69.8528 27.8352C69.7822 27.8175 69.7056 27.8057 69.6173 27.7998C69.529 27.7998 69.4466 27.7998 69.3642 27.7998C69.3288 27.7998 69.2935 27.8057 69.2641 27.8116C69.2346 27.8116 69.1934 27.8175 69.1581 27.8234C69.0816 27.841 69.0109 27.8646 68.9462 27.8764C68.8814 27.8881 68.8166 27.9176 68.7519 27.9411C68.4869 28.053 68.275 28.2178 68.1219 28.4298C67.9689 28.6417 67.8452 28.8949 67.751 29.1775C67.7334 29.2304 67.7157 29.2893 67.7098 29.3423C67.7039 29.4012 67.6922 29.4601 67.6745 29.5189C67.6745 29.5425 67.6686 29.566 67.6686 29.5896C67.6686 29.6131 67.6686 29.6367 67.6627 29.6602C67.6509 29.6779 67.651 29.7014 67.651 29.725C67.651 29.7485 67.651 29.7662 67.651 29.7897V29.8545C67.651 29.8545 67.6451 29.9251 67.6451 29.9899C67.6451 30.0547 67.6451 30.1018 67.651 30.1253C67.651 30.143 67.651 30.1606 67.651 30.1783C67.651 30.196 67.651 30.2136 67.651 30.2313C67.6627 30.2725 67.6686 30.3137 67.6686 30.3608C67.6686 30.4079 67.6745 30.4491 67.6863 30.4903C67.6863 30.508 67.6922 30.5257 67.6863 30.5433C67.6863 30.561 67.6863 30.5786 67.698 30.5963C67.7157 30.6493 67.7275 30.7082 67.7334 30.7611C67.7393 30.8141 67.7628 30.873 67.7864 30.926C67.8099 30.979 67.8335 31.032 67.8511 31.0849C67.8688 31.1379 67.8923 31.1909 67.9218 31.238C67.9453 31.2792 67.9689 31.3146 67.9924 31.3558C68.016 31.3911 68.0395 31.4323 68.0631 31.4735C68.2161 31.6913 68.4163 31.8621 68.6636 31.9857C68.7342 32.0269 68.8049 32.0564 68.8755 32.074C68.9462 32.0917 69.0227 32.1152 69.111 32.1388C69.1463 32.1505 69.1758 32.1505 69.2052 32.1505C69.2346 32.1505 69.2641 32.1505 69.2994 32.1623C69.3288 32.1741 69.3642 32.1741 69.3995 32.1741C69.4348 32.1741 69.476 32.1741 69.5172 32.1741H69.5938C69.5938 32.1741 69.6409 32.1682 69.6703 32.1623C69.6938 32.1623 69.7174 32.1623 69.7468 32.1623C69.8175 32.1447 69.8822 32.1329 69.9411 32.127C70.0059 32.1152 70.0589 32.0976 70.1177 32.074C70.3709 31.968 70.5769 31.8326 70.7359 31.6678C70.8949 31.4971 71.0303 31.291 71.1303 31.0378C71.1539 30.9731 71.1774 30.9083 71.1951 30.8377C71.2128 30.767 71.2304 30.7023 71.2481 30.6316C71.2599 30.6022 71.2658 30.5728 71.2658 30.5374C71.2658 30.5021 71.2716 30.4727 71.2834 30.4373L71.307 30.1901V30.1253V30.1018Z" fill="#272725"/>
<path d="M81.3625 29.8663C81.3625 29.8663 81.3684 29.9251 81.3684 29.9722C81.3684 30.0193 81.3684 30.0547 81.3625 30.0782V30.1665C81.3508 30.2136 81.3449 30.2666 81.3449 30.3196C81.3449 30.3726 81.3449 30.4197 81.3272 30.4668C81.3154 30.508 81.3096 30.5433 81.3037 30.5786C81.3037 30.614 81.2919 30.6493 81.2919 30.6905C81.2683 30.7729 81.2448 30.8553 81.2271 30.9378C81.2095 31.0143 81.18 31.0908 81.1506 31.1674C81.0034 31.5265 80.8091 31.8326 80.5678 32.074C80.3264 32.3154 80.0143 32.5038 79.6258 32.6333C79.5728 32.651 79.5139 32.6627 79.4609 32.6686C79.4079 32.6745 79.3491 32.6922 79.2961 32.704C79.2725 32.704 79.249 32.7098 79.2313 32.7098C79.2137 32.7098 79.1901 32.7098 79.1725 32.7157L78.9252 32.7393C78.9252 32.7393 78.8781 32.7452 78.8251 32.7393C78.7721 32.7334 78.7368 32.7334 78.725 32.7275C78.7015 32.7275 78.6779 32.7216 78.6544 32.7275C78.6308 32.7275 78.6132 32.7275 78.5896 32.7275H78.5072C78.4719 32.7157 78.4365 32.7098 78.4071 32.7098C78.3777 32.7098 78.3423 32.704 78.307 32.6981C78.2599 32.6863 78.2069 32.6745 78.1598 32.6627C78.1127 32.6569 78.0656 32.6451 78.0127 32.6274C77.9656 32.6098 77.9126 32.5862 77.8655 32.5685C77.8184 32.5509 77.7654 32.5273 77.7183 32.5097C77.418 32.3743 77.1649 32.1918 76.9706 31.9563C76.7763 31.7208 76.6115 31.45 76.482 31.1379C76.4525 31.0673 76.429 30.9966 76.4172 30.9201C76.3995 30.8436 76.3819 30.767 76.3583 30.6905C76.3466 30.6728 76.3465 30.6552 76.3465 30.6375C76.3465 30.6199 76.3466 30.6022 76.3348 30.5786C76.323 30.5433 76.3171 30.508 76.3171 30.4668C76.3171 30.4256 76.3171 30.3902 76.2995 30.349C76.2877 30.3314 76.2877 30.3078 76.2877 30.2902C76.2877 30.2725 76.2877 30.2548 76.2877 30.2372V30.0841C76.2877 30.0841 76.27 30.0252 76.27 29.9781C76.27 29.931 76.27 29.9016 76.2877 29.8722V29.778L76.3112 29.513C76.323 29.4836 76.3289 29.4542 76.3289 29.4247C76.3289 29.3953 76.3289 29.3659 76.3407 29.3364C76.3583 29.2599 76.376 29.1775 76.3936 29.1009C76.4054 29.0244 76.429 28.9537 76.4584 28.8831C76.4996 28.7889 76.5349 28.6947 76.5703 28.6064C76.6056 28.5181 76.6468 28.4357 76.7057 28.3532C76.847 28.1295 77.0059 27.9352 77.1943 27.7763C77.3827 27.6173 77.6064 27.4819 77.8655 27.3759C77.9185 27.3524 77.9773 27.3289 78.0421 27.3171C78.1069 27.2994 78.1657 27.2876 78.2305 27.2641C78.2599 27.2523 78.2894 27.2464 78.3247 27.2464C78.36 27.2464 78.3894 27.2464 78.4189 27.2347C78.4601 27.2347 78.4954 27.2288 78.5366 27.2229C78.5719 27.2229 78.6132 27.217 78.6544 27.2111C78.6662 27.2111 78.6779 27.2111 78.6897 27.2111C78.7074 27.2111 78.7191 27.2111 78.725 27.2111C79.0547 27.1993 79.3491 27.2347 79.5963 27.3112C79.8436 27.3877 80.0614 27.4937 80.2498 27.6291C80.3264 27.6762 80.397 27.7292 80.4677 27.7822C80.5383 27.8352 80.5972 27.8999 80.6561 27.9706C80.6737 27.9941 80.6855 28.0177 80.709 28.0294C80.7267 28.0412 80.7444 28.0648 80.762 28.0883C80.7915 28.1295 80.8209 28.1707 80.8503 28.2119C80.8798 28.2532 80.9092 28.2944 80.9328 28.3356C80.9445 28.3591 80.9504 28.3827 80.9622 28.4003C80.974 28.418 80.9857 28.4415 80.9975 28.4651C81.0152 28.4945 81.0328 28.524 81.0505 28.5534C81.0917 28.6417 81.127 28.7359 81.1682 28.836C81.18 28.8654 81.1859 28.8949 81.1918 28.9243C81.1977 28.9537 81.2095 28.9773 81.2153 29.0067C81.233 29.0538 81.2448 29.1068 81.2566 29.1598C81.2683 29.2128 81.2801 29.2658 81.2978 29.3188C81.3095 29.3423 81.3154 29.3659 81.3154 29.3953C81.3154 29.4247 81.3154 29.4424 81.3213 29.4718C81.3331 29.5072 81.339 29.5425 81.339 29.5778C81.339 29.6131 81.339 29.6484 81.3566 29.6897V29.7368C81.3566 29.7368 81.3566 29.7839 81.3566 29.8133C81.3566 29.8368 81.3566 29.8604 81.3625 29.8898V29.8663ZM80.6619 30.1018C80.6619 30.1018 80.6796 30.0311 80.6796 29.9722C80.6796 29.9134 80.6796 29.8663 80.6619 29.8427V29.7839C80.6619 29.7839 80.6619 29.7368 80.6619 29.7191C80.6619 29.7014 80.6619 29.6779 80.6619 29.6543C80.6502 29.6308 80.6502 29.6072 80.6502 29.5837C80.6502 29.5601 80.6502 29.5366 80.6384 29.513C80.6266 29.4659 80.6207 29.4247 80.6148 29.3776C80.609 29.3305 80.5972 29.2893 80.5913 29.254C80.5677 29.1833 80.5442 29.1186 80.5265 29.0597C80.5089 29.0008 80.4853 28.9361 80.4618 28.8772C80.3794 28.677 80.2616 28.4886 80.1144 28.3297C79.9672 28.1707 79.7965 28.0412 79.5963 27.9529C79.4845 27.9058 79.3608 27.8646 79.2078 27.8352C79.1371 27.8175 79.0606 27.8057 78.9723 27.7998C78.884 27.7998 78.8016 27.7998 78.7191 27.7998C78.6838 27.7998 78.6485 27.8057 78.619 27.8116C78.5896 27.8116 78.5484 27.8175 78.5131 27.8234C78.4365 27.841 78.3659 27.8646 78.3011 27.8764C78.2364 27.8881 78.1716 27.9176 78.1069 27.9411C77.8419 28.053 77.63 28.2178 77.4769 28.4298C77.3238 28.6417 77.2002 28.8949 77.106 29.1775C77.0884 29.2304 77.0707 29.2893 77.0648 29.3423C77.0589 29.4012 77.0471 29.4601 77.0295 29.5189C77.0295 29.5425 77.0236 29.566 77.0236 29.5896C77.0236 29.6131 77.0236 29.6367 77.0177 29.6602C77.0059 29.6779 77.0059 29.7014 77.0059 29.725C77.0059 29.7485 77.0059 29.7662 77.0059 29.7897V29.8545C77.0059 29.8545 77 29.9251 77 29.9899C77 30.0547 77 30.1018 77.0059 30.1253C77.0059 30.143 77.0059 30.1606 77.0059 30.1783C77.0059 30.196 77.0059 30.2136 77.0059 30.2313C77.0177 30.2725 77.0236 30.3137 77.0236 30.3608C77.0236 30.4079 77.0295 30.4491 77.0413 30.4903C77.0413 30.508 77.0471 30.5257 77.0413 30.5433C77.0413 30.561 77.0413 30.5786 77.053 30.5963C77.0707 30.6493 77.0825 30.7082 77.0884 30.7611C77.0942 30.8141 77.1178 30.873 77.1413 30.926C77.1649 30.979 77.1884 31.032 77.2061 31.0849C77.2238 31.1379 77.2473 31.1909 77.2767 31.238C77.3003 31.2792 77.3238 31.3146 77.3474 31.3558C77.3709 31.3911 77.3945 31.4323 77.418 31.4735C77.5711 31.6913 77.7713 31.8621 78.0185 31.9857C78.0892 32.0269 78.1598 32.0564 78.2305 32.074C78.3011 32.0917 78.3777 32.1152 78.466 32.1388C78.5013 32.1505 78.5307 32.1505 78.5602 32.1505C78.5896 32.1505 78.6191 32.1505 78.6544 32.1623C78.6838 32.1741 78.7191 32.1741 78.7545 32.1741C78.7898 32.1741 78.831 32.1741 78.8722 32.1741H78.9487C78.9487 32.1741 78.9958 32.1682 79.0253 32.1623C79.0488 32.1623 79.0724 32.1623 79.1018 32.1623C79.1725 32.1447 79.2372 32.1329 79.2961 32.127C79.3609 32.1152 79.4138 32.0976 79.4727 32.074C79.7259 31.968 79.9319 31.8326 80.0909 31.6678C80.2498 31.4971 80.3852 31.291 80.4853 31.0378C80.5089 30.9731 80.5324 30.9083 80.5501 30.8377C80.5678 30.767 80.5854 30.7023 80.6031 30.6316C80.6148 30.6022 80.6207 30.5728 80.6207 30.5374C80.6207 30.5021 80.6266 30.4727 80.6384 30.4373L80.6619 30.1901V30.1253V30.1018Z" fill="#272725"/>
<path d="M86.1606 27.3288H89.2162C89.2691 27.3288 89.3104 27.3406 89.3398 27.3583C89.381 27.3818 89.4045 27.4172 89.4104 27.4643C89.4163 27.5114 89.4222 27.5643 89.4222 27.6291C89.4222 27.6527 89.4222 27.6762 89.4222 27.6998C89.4222 27.7233 89.4222 27.741 89.4104 27.7645C89.3928 27.841 89.3457 27.8881 89.2809 27.894C89.2162 27.8999 89.1337 27.9058 89.0336 27.9058H87.1674C87.0908 27.9058 87.0025 27.9058 86.9142 27.9058C86.8259 27.9058 86.7611 27.9176 86.714 27.9529C86.6669 27.9823 86.6434 28.0353 86.6434 28.106C86.6434 28.1825 86.6434 28.2532 86.6434 28.3297V29.0656C86.6434 29.1068 86.6434 29.1539 86.6434 29.2128C86.6434 29.2717 86.6434 29.3246 86.6552 29.36V29.4188C86.6552 29.4188 86.6728 29.4777 86.6787 29.5013C86.6846 29.5307 86.7023 29.5484 86.7258 29.566C86.7729 29.5955 86.8377 29.6072 86.9319 29.6072C87.0261 29.6072 87.1085 29.6072 87.1791 29.6072H88.5156C88.5627 29.6072 88.6098 29.6072 88.6628 29.6072C88.7157 29.6072 88.7687 29.6072 88.8158 29.6072C88.8629 29.6072 88.9159 29.6131 88.9571 29.6249C88.9983 29.6367 89.0278 29.6543 89.0395 29.6779C89.0631 29.7073 89.0749 29.7426 89.0749 29.7897V30.0193C89.0749 30.0193 89.0749 30.0664 89.0631 30.0841C89.0454 30.1312 89.016 30.1606 88.9807 30.1665C88.963 30.1783 88.9395 30.1783 88.9277 30.1783C88.9159 30.1783 88.8865 30.1783 88.8629 30.1842C88.8453 30.1842 88.8217 30.1901 88.7982 30.1842C88.7746 30.1842 88.7569 30.1842 88.7334 30.1842H87.2204C87.1438 30.1842 87.0496 30.1842 86.9437 30.1842C86.8377 30.1842 86.7612 30.196 86.7199 30.2313C86.6964 30.249 86.6787 30.2843 86.667 30.3255C86.6552 30.3667 86.6493 30.4138 86.6434 30.4727C86.6434 30.5257 86.6434 30.5845 86.6434 30.6375C86.6434 30.6905 86.6434 30.7435 86.6434 30.7906V32.0681C86.6434 32.1506 86.6434 32.2447 86.6493 32.3448C86.6493 32.4449 86.6375 32.5156 86.5963 32.5685C86.5786 32.5862 86.561 32.598 86.5315 32.6039C86.5021 32.6098 86.4727 32.6098 86.4432 32.6215H86.3019C86.2313 32.6215 86.1665 32.6215 86.1077 32.6156C86.0488 32.6156 86.0076 32.5862 85.984 32.5391C85.9664 32.5097 85.9546 32.4685 85.9546 32.4155V27.7527C85.9546 27.6998 85.9546 27.635 85.9546 27.5702C85.9546 27.5055 85.9605 27.4525 85.9899 27.4113C86.0076 27.3818 86.0488 27.3583 86.1018 27.3347C86.1135 27.3347 86.1253 27.3289 86.1371 27.3347C86.1489 27.3347 86.1606 27.3347 86.1724 27.3347L86.1606 27.3288Z" fill="#272725"/>
<path d="M94.1733 27.3406C94.2087 27.3406 94.2499 27.3406 94.2911 27.3406C94.3382 27.3406 94.3794 27.3406 94.4206 27.3406C94.4618 27.3406 94.503 27.3465 94.5384 27.3583C94.5737 27.3701 94.5972 27.3818 94.6149 27.4054C94.6443 27.4407 94.662 27.4878 94.662 27.5526C94.662 27.6173 94.662 27.6762 94.662 27.741V32.3978C94.662 32.4685 94.6502 32.5273 94.6267 32.5627C94.609 32.5862 94.5855 32.6039 94.556 32.6098C94.5266 32.6098 94.4971 32.6215 94.4559 32.6333H94.3146C94.244 32.6333 94.1792 32.6333 94.1204 32.6274C94.0615 32.6274 94.0203 32.598 93.9967 32.5509C93.9791 32.5214 93.9673 32.4802 93.9673 32.4273V27.7704C93.9673 27.7174 93.9673 27.6527 93.9673 27.5879C93.9673 27.5231 93.9732 27.4701 94.0026 27.4289C94.0203 27.3936 94.0615 27.3701 94.1204 27.3524C94.1321 27.3524 94.138 27.3524 94.1498 27.3524C94.1616 27.3524 94.1675 27.3524 94.1792 27.3524L94.1733 27.3406Z" fill="#272725"/>
<path d="M99.7721 27.3288C99.8604 27.3288 99.9605 27.3288 100.066 27.3288C100.172 27.3288 100.255 27.3465 100.314 27.3818C100.355 27.4113 100.39 27.4525 100.426 27.5113C100.461 27.5702 100.49 27.6173 100.52 27.6644C100.585 27.7645 100.649 27.8646 100.714 27.9647C100.779 28.0648 100.844 28.1707 100.908 28.2708C100.944 28.3238 100.979 28.3768 101.014 28.4298C101.05 28.4828 101.085 28.5357 101.12 28.5887C101.267 28.8242 101.421 29.0597 101.574 29.2952C101.727 29.5307 101.88 29.7662 102.033 30.0017C102.074 30.0723 102.115 30.1371 102.162 30.196C102.209 30.2607 102.251 30.3255 102.292 30.3902C102.374 30.5256 102.463 30.6552 102.551 30.7847C102.639 30.9142 102.722 31.0437 102.81 31.1733C102.834 31.2145 102.863 31.2616 102.904 31.3204C102.945 31.3793 102.987 31.4087 103.04 31.4087C103.063 31.397 103.075 31.3911 103.075 31.3852C103.098 31.3558 103.11 31.3145 103.11 31.2616V27.7998C103.11 27.7645 103.11 27.7292 103.104 27.688C103.104 27.6468 103.104 27.6114 103.11 27.5761V27.4937C103.11 27.4937 103.128 27.4525 103.128 27.4348C103.128 27.4172 103.134 27.3995 103.146 27.3818C103.175 27.3406 103.222 27.323 103.281 27.3171C103.34 27.3171 103.405 27.3171 103.475 27.3171H103.569C103.599 27.3171 103.628 27.3171 103.658 27.3288C103.717 27.3524 103.752 27.3995 103.758 27.4584C103.764 27.5172 103.77 27.5938 103.77 27.6762V32.2271C103.77 32.2801 103.77 32.3389 103.77 32.3919C103.77 32.4449 103.764 32.4861 103.734 32.5156C103.717 32.545 103.693 32.5627 103.664 32.5685C103.634 32.5744 103.605 32.5862 103.564 32.5921H103.187C103.128 32.5921 103.075 32.5803 103.034 32.5627C102.992 32.5509 102.963 32.5214 102.939 32.4861C102.916 32.4508 102.892 32.4155 102.869 32.3801C102.828 32.3213 102.786 32.2565 102.745 32.1918C102.704 32.127 102.663 32.0622 102.622 31.9975C102.445 31.7325 102.268 31.4676 102.092 31.2027C101.921 30.9378 101.744 30.6728 101.574 30.402C101.479 30.2548 101.385 30.1077 101.285 29.9664C101.191 29.8251 101.091 29.6779 100.997 29.5307C100.832 29.2717 100.661 29.0126 100.484 28.7536C100.467 28.7182 100.443 28.6829 100.426 28.6535C100.408 28.624 100.379 28.5946 100.343 28.5652C100.331 28.5652 100.326 28.5534 100.314 28.5416C100.302 28.5299 100.29 28.5299 100.278 28.5357C100.249 28.5475 100.231 28.5652 100.225 28.5946C100.225 28.624 100.214 28.6535 100.202 28.6829V28.7359C100.19 28.7712 100.19 28.8066 100.196 28.8537C100.196 28.8949 100.202 28.9361 100.202 28.9773V32.18C100.202 32.18 100.202 32.233 100.202 32.2683C100.202 32.3036 100.202 32.333 100.19 32.3566V32.4155C100.178 32.4626 100.172 32.4979 100.161 32.5214C100.149 32.545 100.131 32.5627 100.108 32.5685C100.084 32.5744 100.055 32.5862 100.025 32.5921H99.8781C99.8074 32.5921 99.7486 32.5921 99.6897 32.5862C99.6367 32.5862 99.5955 32.5568 99.5719 32.5214C99.5484 32.492 99.5366 32.4508 99.5366 32.3978V27.5408C99.5366 27.476 99.5484 27.423 99.5719 27.3818C99.5896 27.3583 99.619 27.3347 99.6602 27.3171C99.672 27.3171 99.6838 27.3112 99.7015 27.3171C99.7191 27.323 99.7309 27.3171 99.7427 27.3171L99.7721 27.3288Z" fill="#272725"/>
<path d="M110.805 27.2111C111.146 27.1993 111.447 27.2347 111.706 27.3053C111.965 27.3759 112.188 27.4819 112.389 27.6232C112.477 27.6821 112.559 27.7468 112.636 27.8234C112.648 27.8352 112.654 27.841 112.665 27.8528C112.677 27.8646 112.683 27.8705 112.695 27.8823C112.718 27.9235 112.748 27.9588 112.777 27.9882C112.807 28.0177 112.836 28.0589 112.86 28.0942C112.913 28.1766 112.96 28.2649 113.001 28.3591C113.042 28.4533 113.077 28.5475 113.119 28.6476C113.136 28.6947 113.142 28.7477 113.142 28.8007C113.142 28.8537 113.125 28.8949 113.083 28.9184C113.072 28.9302 113.06 28.9361 113.042 28.9361C113.024 28.9361 113.007 28.9361 112.995 28.942H112.942C112.942 28.942 112.877 28.9596 112.818 28.9596C112.76 28.9596 112.718 28.9596 112.695 28.942C112.677 28.942 112.665 28.942 112.648 28.942C112.63 28.942 112.618 28.942 112.595 28.9361C112.565 28.9361 112.536 28.9184 112.512 28.9008C112.483 28.8772 112.459 28.8419 112.448 28.7948C112.436 28.7477 112.418 28.7065 112.4 28.6712C112.377 28.6064 112.347 28.5475 112.312 28.4886C112.283 28.4298 112.241 28.3768 112.206 28.3238C112.194 28.312 112.183 28.3003 112.171 28.2885C112.153 28.2767 112.141 28.2649 112.135 28.2473C112.088 28.2002 112.047 28.1531 112 28.1236C111.977 28.1119 111.953 28.0942 111.935 28.0765C111.918 28.0589 111.894 28.0412 111.871 28.0294C111.8 27.9882 111.729 27.9529 111.647 27.9235C111.564 27.894 111.488 27.8646 111.4 27.841C111.352 27.8293 111.311 27.8234 111.264 27.8175C111.217 27.8175 111.176 27.8057 111.129 27.7939C111.111 27.7939 111.088 27.7881 111.076 27.7939C111.058 27.7939 111.04 27.7939 111.029 27.7939H110.834C110.799 27.7939 110.77 27.7939 110.74 27.7998C110.728 27.7998 110.717 27.7998 110.705 27.7998C110.687 27.7998 110.675 27.7998 110.67 27.7998C110.64 27.7998 110.611 27.8116 110.575 27.8175C110.546 27.8175 110.511 27.8293 110.481 27.8293C110.31 27.8764 110.157 27.9352 110.028 28.0177C109.822 28.1472 109.651 28.3003 109.527 28.4769C109.404 28.6535 109.298 28.8654 109.21 29.1186C109.192 29.1716 109.174 29.2304 109.162 29.2893C109.151 29.3482 109.139 29.4071 109.127 29.4659C109.115 29.4895 109.115 29.513 109.115 29.5366C109.115 29.5601 109.115 29.5837 109.104 29.6072C109.092 29.6426 109.092 29.6779 109.092 29.7132C109.092 29.7485 109.092 29.7897 109.08 29.8309V29.9134C109.08 29.9428 109.074 29.984 109.074 30.037C109.074 30.09 109.074 30.1312 109.08 30.1548V30.2313C109.08 30.2313 109.086 30.2548 109.086 30.2725C109.086 30.2902 109.086 30.3019 109.092 30.3137C109.104 30.349 109.104 30.3785 109.098 30.4079C109.098 30.4373 109.098 30.4668 109.104 30.5021C109.115 30.5433 109.121 30.5786 109.127 30.6198C109.133 30.6552 109.145 30.6964 109.151 30.7376C109.174 30.8141 109.204 30.8848 109.227 30.9554C109.257 31.0261 109.28 31.0967 109.315 31.1674C109.339 31.2262 109.368 31.2851 109.41 31.3381C109.451 31.3911 109.486 31.4441 109.527 31.4912C109.71 31.7384 109.951 31.9209 110.246 32.0387C110.281 32.0563 110.316 32.0681 110.352 32.074C110.387 32.0858 110.422 32.0917 110.464 32.1034C110.581 32.1388 110.723 32.1564 110.881 32.1564H110.982C111.011 32.1564 111.046 32.1564 111.076 32.1505C111.099 32.1388 111.129 32.1388 111.152 32.1447C111.182 32.1447 111.205 32.1447 111.229 32.1388C111.299 32.1211 111.364 32.1034 111.423 32.0917C111.482 32.0799 111.541 32.0622 111.6 32.0387C112.059 31.8562 112.371 31.5265 112.53 31.0496C112.542 31.0084 112.548 30.9731 112.553 30.9319C112.559 30.8907 112.571 30.8553 112.577 30.8141C112.595 30.7553 112.595 30.6905 112.595 30.6198C112.595 30.5492 112.565 30.4962 112.53 30.4668C112.489 30.4432 112.436 30.4315 112.365 30.4315H111.164C111.099 30.4315 111.046 30.4256 111.011 30.4079C110.97 30.3902 110.946 30.3608 110.934 30.3255C110.923 30.3078 110.917 30.2784 110.911 30.2372C110.911 30.2018 110.905 30.1606 110.905 30.1194C110.905 30.0782 110.905 30.0429 110.917 30.0017C110.923 29.9664 110.934 29.9369 110.94 29.9251C110.958 29.8898 110.993 29.8663 111.046 29.8486C111.07 29.8368 111.099 29.8368 111.135 29.8368H112.701C112.754 29.8368 112.807 29.8368 112.866 29.8368C112.919 29.8368 112.971 29.8368 113.019 29.8427C113.066 29.8486 113.107 29.8604 113.142 29.878C113.178 29.8957 113.201 29.9251 113.219 29.9722C113.231 30.0017 113.231 30.037 113.231 30.0782C113.231 30.1194 113.231 30.1548 113.231 30.196V32.4214C113.231 32.4567 113.231 32.4861 113.213 32.5097C113.195 32.5509 113.166 32.5803 113.125 32.598C113.107 32.6098 113.077 32.6098 113.03 32.6098C112.96 32.6098 112.907 32.6039 112.877 32.5862C112.842 32.5685 112.813 32.5509 112.795 32.5214C112.777 32.492 112.76 32.4567 112.748 32.4155C112.736 32.3743 112.724 32.3331 112.707 32.2801C112.695 32.2447 112.683 32.2035 112.659 32.1447C112.636 32.0858 112.601 32.0681 112.542 32.0858C112.506 32.0976 112.477 32.1093 112.459 32.1329C112.442 32.1505 112.418 32.1741 112.395 32.1918C112.353 32.2212 112.318 32.2506 112.283 32.286C112.247 32.3213 112.212 32.3448 112.171 32.3743C112.065 32.4449 111.959 32.4979 111.841 32.545C111.723 32.5921 111.6 32.6333 111.464 32.6686C111.429 32.6804 111.394 32.6863 111.358 32.6922C111.323 32.6922 111.288 32.704 111.247 32.7157C111.205 32.7157 111.176 32.7157 111.158 32.7216H111.111C111.111 32.7216 111.076 32.7216 111.064 32.7275H110.987C110.987 32.7275 110.94 32.7334 110.905 32.7334C110.87 32.7334 110.84 32.7334 110.817 32.7275H110.693C110.64 32.7157 110.587 32.7098 110.54 32.7098C110.493 32.7098 110.446 32.6981 110.393 32.6863C110.305 32.6627 110.216 32.6392 110.134 32.6215C110.051 32.6039 109.969 32.5744 109.887 32.5391C109.604 32.4096 109.357 32.2389 109.145 32.021C108.933 31.8032 108.762 31.5559 108.633 31.2675C108.609 31.2086 108.585 31.1438 108.562 31.0791C108.538 31.0143 108.515 30.9495 108.491 30.8789C108.491 30.8612 108.485 30.8377 108.485 30.8259C108.485 30.8141 108.485 30.7906 108.468 30.7729C108.456 30.7199 108.444 30.6611 108.432 30.6022C108.426 30.5433 108.415 30.4844 108.397 30.4256C108.397 30.4079 108.391 30.3844 108.397 30.3667C108.397 30.349 108.397 30.3314 108.397 30.3137V30.2489C108.397 30.2489 108.379 30.1783 108.379 30.1077C108.379 30.037 108.379 29.9899 108.397 29.9605V29.8015C108.397 29.8015 108.397 29.7426 108.403 29.7132C108.403 29.6897 108.409 29.6602 108.409 29.6367C108.409 29.6131 108.409 29.5837 108.415 29.5601C108.432 29.5013 108.438 29.4424 108.45 29.3835C108.456 29.3246 108.468 29.2658 108.485 29.2069C108.532 29.0421 108.585 28.889 108.638 28.7359C108.691 28.5828 108.756 28.4474 108.844 28.3179C108.992 28.0824 109.168 27.8881 109.374 27.7233C109.58 27.5585 109.822 27.4289 110.104 27.3347C110.157 27.3171 110.21 27.2994 110.263 27.2935C110.316 27.2876 110.369 27.2759 110.422 27.2582C110.446 27.2464 110.469 27.2464 110.493 27.2464C110.516 27.2464 110.54 27.2464 110.564 27.2405C110.605 27.2405 110.646 27.2346 110.687 27.2288C110.728 27.2288 110.77 27.2288 110.811 27.2288L110.805 27.2111Z" fill="#272725"/>
<path d="M127.808 32.4743C127.808 32.4743 127.819 32.5214 127.808 32.5509C127.802 32.5744 127.784 32.5921 127.76 32.6039C127.731 32.6156 127.696 32.6274 127.649 32.6215C127.601 32.6215 127.56 32.6215 127.525 32.6215C127.472 32.6215 127.413 32.6215 127.354 32.6215C127.295 32.6215 127.242 32.6215 127.201 32.6098C127.178 32.598 127.154 32.5862 127.136 32.5744C127.119 32.5568 127.095 32.545 127.072 32.5273C127.054 32.5156 127.03 32.492 127.019 32.4685C127.007 32.4449 126.983 32.4214 126.966 32.4037C126.942 32.3684 126.913 32.3389 126.883 32.3095C126.854 32.2801 126.824 32.2447 126.795 32.2153C126.771 32.18 126.742 32.1505 126.718 32.1211C126.695 32.0917 126.654 32.074 126.601 32.0681C126.559 32.0563 126.524 32.0681 126.495 32.1034L126.418 32.18C126.306 32.2977 126.171 32.3978 126.024 32.4861C125.953 32.5273 125.876 32.5568 125.8 32.5862C125.723 32.6156 125.635 32.6392 125.553 32.6627C125.523 32.6745 125.494 32.6745 125.464 32.6745C125.435 32.6745 125.406 32.6745 125.376 32.6922C125.358 32.6922 125.341 32.6922 125.323 32.6922C125.305 32.6922 125.294 32.6922 125.27 32.6922C125.229 32.704 125.17 32.7098 125.093 32.7098C125.017 32.7098 124.958 32.7098 124.917 32.6981C124.899 32.6981 124.87 32.6922 124.829 32.6922C124.793 32.6922 124.758 32.6804 124.728 32.6804C124.699 32.6804 124.664 32.6686 124.628 32.6627C124.522 32.6392 124.428 32.6098 124.334 32.5803C124.24 32.5509 124.157 32.5097 124.069 32.4567C123.828 32.3095 123.645 32.0858 123.527 31.7796C123.516 31.7502 123.51 31.7208 123.504 31.6913C123.498 31.6619 123.486 31.6266 123.48 31.5971C123.463 31.5147 123.451 31.4029 123.451 31.2616V31.1144C123.463 31.0673 123.469 31.0261 123.474 30.979C123.474 30.9319 123.492 30.8907 123.504 30.8495C123.527 30.7729 123.557 30.7023 123.592 30.6316C123.622 30.561 123.663 30.4962 123.71 30.4373C123.734 30.402 123.757 30.3726 123.786 30.3431C123.81 30.3137 123.834 30.2843 123.863 30.2489C123.881 30.2313 123.892 30.2077 123.916 30.196C123.934 30.1783 123.957 30.1606 123.975 30.1489C123.993 30.1371 124.01 30.1253 124.028 30.1018C124.046 30.0841 124.063 30.0664 124.081 30.0488C124.157 29.9899 124.252 29.9251 124.346 29.8604C124.387 29.8368 124.434 29.8074 124.487 29.778C124.54 29.7485 124.581 29.7132 124.599 29.6661C124.617 29.619 124.611 29.566 124.581 29.5189C124.552 29.4718 124.522 29.4306 124.505 29.4071C124.434 29.3129 124.369 29.2187 124.31 29.1186C124.252 29.0185 124.199 28.9066 124.157 28.7771C124.146 28.7477 124.14 28.7124 124.134 28.6829C124.134 28.6476 124.122 28.6123 124.11 28.5711C124.099 28.5122 124.099 28.4357 124.11 28.3415C124.122 28.2473 124.134 28.1825 124.146 28.1354C124.157 28.1119 124.163 28.0883 124.163 28.0706C124.163 28.053 124.169 28.0294 124.181 28.0059C124.287 27.741 124.481 27.5467 124.752 27.4348C124.799 27.4113 124.852 27.3936 124.905 27.3818C124.958 27.3701 125.017 27.3642 125.076 27.3524C125.105 27.3524 125.135 27.3465 125.164 27.3406C125.194 27.3406 125.223 27.3406 125.252 27.3406C125.535 27.3288 125.788 27.3877 126.006 27.5055C126.224 27.6232 126.377 27.7822 126.465 27.9706C126.489 28.0294 126.512 28.0824 126.524 28.1354C126.524 28.159 126.536 28.1825 126.542 28.2002C126.542 28.2178 126.554 28.2355 126.559 28.2649V28.3297C126.559 28.3297 126.565 28.3591 126.565 28.3768V28.4239C126.565 28.5534 126.548 28.6712 126.506 28.783C126.483 28.8654 126.448 28.942 126.406 29.0126C126.365 29.0833 126.318 29.1539 126.271 29.2187C126.259 29.2363 126.247 29.2481 126.23 29.2658C126.212 29.2775 126.194 29.2952 126.183 29.3188C126.136 29.3659 126.094 29.413 126.047 29.4424C126.024 29.46 126 29.4836 125.982 29.5013C125.965 29.5189 125.941 29.5425 125.918 29.5601C125.876 29.5837 125.835 29.6131 125.794 29.6426C125.747 29.672 125.718 29.7132 125.688 29.7485C125.665 29.7839 125.659 29.8192 125.67 29.8604C125.688 29.9016 125.7 29.931 125.718 29.9546C125.735 29.9722 125.747 29.9899 125.771 30.0076C125.788 30.0252 125.806 30.0488 125.824 30.0723C125.871 30.1371 125.918 30.196 125.971 30.2548C126.024 30.3137 126.071 30.3726 126.118 30.4373C126.136 30.4609 126.159 30.4844 126.177 30.5021C126.194 30.5198 126.218 30.5433 126.236 30.5669C126.259 30.6081 126.294 30.6552 126.347 30.714C126.4 30.7729 126.448 30.8082 126.495 30.82C126.518 30.82 126.536 30.82 126.548 30.8082C126.559 30.7906 126.571 30.7788 126.583 30.7729C126.607 30.7435 126.624 30.7082 126.63 30.6728C126.636 30.6375 126.648 30.5963 126.665 30.5492C126.665 30.5257 126.677 30.4962 126.683 30.455C126.683 30.4197 126.695 30.3785 126.701 30.3431C126.707 30.3078 126.718 30.2725 126.724 30.2431C126.736 30.2136 126.748 30.1901 126.771 30.1783C126.801 30.1547 126.836 30.1371 126.877 30.1312C126.919 30.1312 126.966 30.1253 127.025 30.1253C127.083 30.1253 127.125 30.1253 127.172 30.1371C127.213 30.143 127.242 30.1606 127.266 30.1901C127.295 30.2313 127.307 30.2843 127.295 30.3549C127.284 30.4256 127.278 30.4786 127.266 30.5256C127.254 30.561 127.248 30.5963 127.248 30.6257C127.248 30.6552 127.248 30.6905 127.231 30.7258C127.207 30.7965 127.183 30.8612 127.166 30.9319C127.148 30.9966 127.119 31.0673 127.089 31.1379C127.078 31.1674 127.06 31.2145 127.036 31.2733C127.007 31.3322 127.001 31.3852 127.013 31.4382C127.03 31.5088 127.066 31.5618 127.107 31.603C127.148 31.6442 127.189 31.6854 127.231 31.7384C127.289 31.815 127.354 31.8915 127.419 31.9622C127.484 32.0328 127.548 32.1034 127.607 32.1859C127.619 32.2035 127.631 32.2212 127.649 32.2389C127.666 32.2565 127.684 32.2683 127.696 32.286C127.719 32.3213 127.749 32.3507 127.778 32.3802C127.808 32.4096 127.831 32.4449 127.843 32.4861L127.808 32.4743ZM126.065 31.7325C126.065 31.7325 126.118 31.6737 126.147 31.6384C126.177 31.5971 126.183 31.55 126.171 31.4971C126.159 31.4441 126.13 31.397 126.088 31.3499C126.047 31.3087 126.012 31.2675 125.982 31.2262C125.935 31.1615 125.882 31.1026 125.829 31.0378C125.776 30.9731 125.729 30.9142 125.682 30.8495C125.665 30.8318 125.653 30.8141 125.635 30.7965C125.617 30.7788 125.6 30.767 125.588 30.7435C125.541 30.6787 125.488 30.6198 125.441 30.561C125.394 30.5021 125.341 30.4432 125.294 30.3785C125.276 30.3608 125.264 30.3431 125.247 30.3255C125.229 30.3137 125.217 30.296 125.205 30.2784C125.176 30.2372 125.141 30.2018 125.111 30.1606C125.076 30.1253 125.029 30.1077 124.964 30.1077C124.952 30.1077 124.94 30.1135 124.929 30.1135C124.917 30.1135 124.905 30.1135 124.893 30.1194C124.876 30.1312 124.864 30.1371 124.84 30.143C124.823 30.1489 124.805 30.1606 124.787 30.1665C124.646 30.2548 124.511 30.3608 124.393 30.4727C124.275 30.5904 124.187 30.7376 124.134 30.9142C124.122 30.9378 124.116 30.9672 124.116 30.9966C124.116 31.0261 124.11 31.0555 124.099 31.0849C124.081 31.1556 124.081 31.2321 124.099 31.3204C124.11 31.4087 124.128 31.4735 124.152 31.5206C124.216 31.6737 124.299 31.7914 124.405 31.8797C124.511 31.968 124.64 32.0387 124.805 32.0917C124.882 32.1152 124.982 32.1329 125.093 32.1388C125.205 32.1388 125.311 32.1388 125.4 32.1093C125.564 32.0622 125.706 32.0034 125.829 31.9209C125.847 31.9092 125.871 31.8915 125.882 31.8738C125.9 31.8562 125.918 31.8444 125.935 31.8326C125.982 31.7914 126.024 31.7502 126.059 31.709L126.065 31.7325ZM124.728 28.2944C124.711 28.3415 124.705 28.4003 124.711 28.4592C124.711 28.5181 124.723 28.5711 124.734 28.6123C124.764 28.7124 124.805 28.8007 124.852 28.8713C124.899 28.9479 124.952 29.0185 125.005 29.095C125.035 29.1362 125.064 29.1775 125.099 29.2187C125.135 29.2658 125.176 29.2893 125.235 29.3011C125.258 29.3011 125.282 29.3011 125.3 29.3011C125.317 29.2952 125.335 29.2834 125.353 29.2775C125.394 29.2599 125.423 29.2363 125.453 29.2128C125.482 29.1892 125.511 29.1657 125.547 29.1421C125.559 29.1421 125.57 29.1245 125.594 29.1068C125.735 28.995 125.835 28.8478 125.9 28.6594C125.924 28.5887 125.935 28.5181 125.929 28.4357C125.929 28.3591 125.912 28.2885 125.882 28.2355C125.835 28.1236 125.771 28.0412 125.676 27.9823C125.582 27.9176 125.458 27.8881 125.311 27.8881C125.3 27.8881 125.294 27.8881 125.282 27.8881C125.27 27.8881 125.264 27.8881 125.252 27.8881L125.117 27.9117C124.97 27.9647 124.858 28.053 124.781 28.1648C124.77 28.1884 124.764 28.2119 124.758 28.2296C124.752 28.2473 124.74 28.2708 124.734 28.2944H124.728Z" fill="#272725"/>
<path d="M140.082 27.2111C140.565 27.1993 140.977 27.2818 141.307 27.4466C141.637 27.6114 141.89 27.841 142.078 28.1354C142.125 28.2119 142.167 28.2885 142.202 28.365C142.231 28.4357 142.267 28.524 142.296 28.6182C142.308 28.6417 142.314 28.677 142.325 28.7183C142.337 28.7595 142.331 28.8007 142.32 28.836C142.308 28.8654 142.29 28.8831 142.267 28.889C142.237 28.8949 142.214 28.9066 142.178 28.9125H142.102C142.102 28.9125 142.066 28.9184 142.049 28.9184H141.984C141.913 28.9184 141.849 28.9184 141.796 28.9066C141.737 28.9008 141.696 28.8772 141.672 28.836C141.637 28.7889 141.607 28.73 141.59 28.6653C141.572 28.6005 141.542 28.5416 141.507 28.4886C141.442 28.3768 141.372 28.2826 141.289 28.2061C141.207 28.1295 141.113 28.053 141.001 27.9823C140.942 27.9411 140.877 27.9117 140.807 27.894C140.736 27.8764 140.659 27.8528 140.589 27.8352C140.536 27.8234 140.471 27.8116 140.4 27.7998C140.33 27.7939 140.259 27.7881 140.182 27.7881C140.106 27.7881 140.029 27.7881 139.959 27.7998C139.888 27.8057 139.829 27.8175 139.776 27.8352C139.729 27.8469 139.682 27.8528 139.635 27.8646C139.588 27.8764 139.547 27.8881 139.5 27.9117C139.082 28.0824 138.781 28.3827 138.599 28.8007C138.563 28.8713 138.534 28.942 138.511 29.0185C138.487 29.095 138.463 29.1716 138.44 29.254C138.428 29.2834 138.422 29.3129 138.422 29.3482C138.422 29.3835 138.422 29.413 138.405 29.4424C138.405 29.4601 138.399 29.4777 138.399 29.4954C138.399 29.513 138.399 29.5248 138.393 29.5484C138.381 29.6013 138.375 29.6602 138.375 29.7132C138.375 29.7662 138.375 29.831 138.375 29.8898C138.375 29.9252 138.375 29.9605 138.375 29.9958C138.375 30.0311 138.375 30.0664 138.375 30.0959V30.1724C138.387 30.2077 138.387 30.2431 138.387 30.2784C138.387 30.3137 138.387 30.349 138.399 30.3844C138.41 30.4138 138.41 30.4432 138.41 30.4727C138.41 30.5021 138.41 30.5315 138.422 30.5551C138.44 30.6199 138.452 30.6846 138.463 30.7435C138.475 30.8024 138.493 30.8671 138.511 30.926C138.593 31.1733 138.705 31.3852 138.84 31.5618C138.976 31.7384 139.152 31.8797 139.37 31.9975C139.441 32.0328 139.511 32.0622 139.582 32.0799C139.653 32.0976 139.729 32.1211 139.817 32.1447C139.853 32.1564 139.882 32.1564 139.912 32.1564C139.941 32.1564 139.976 32.1564 140.018 32.1682C140.041 32.1682 140.088 32.1741 140.153 32.18C140.218 32.1859 140.265 32.18 140.294 32.1682H140.347C140.347 32.1682 140.389 32.1682 140.406 32.1682C140.424 32.1682 140.447 32.1682 140.465 32.1564C140.512 32.1447 140.565 32.1388 140.612 32.1329C140.659 32.127 140.706 32.1093 140.748 32.0917C141.136 31.9327 141.407 31.6737 141.566 31.3146C141.607 31.2262 141.643 31.1203 141.678 30.9966C141.69 30.9495 141.696 30.9083 141.701 30.8612C141.707 30.8141 141.725 30.7729 141.749 30.7317C141.772 30.6905 141.813 30.6728 141.866 30.667C141.919 30.6611 141.978 30.6611 142.043 30.6611H142.119C142.119 30.6611 142.167 30.6611 142.184 30.667H142.237C142.237 30.667 142.267 30.6728 142.284 30.6787C142.302 30.6846 142.314 30.6846 142.325 30.6964C142.361 30.714 142.378 30.7494 142.384 30.8024C142.384 30.8553 142.384 30.9024 142.373 30.9554C142.343 31.0673 142.314 31.1791 142.29 31.2851C142.267 31.3911 142.225 31.4912 142.178 31.5795C142.137 31.6442 142.102 31.7031 142.072 31.7679C142.043 31.8326 142.002 31.8856 141.966 31.9445C141.878 32.074 141.766 32.1918 141.637 32.2977C141.507 32.4037 141.366 32.492 141.207 32.5627C141.154 32.5862 141.101 32.6098 141.048 32.6215C140.995 32.6333 140.942 32.651 140.889 32.6745C140.836 32.6981 140.777 32.7098 140.724 32.7157C140.665 32.7216 140.606 32.7334 140.548 32.7393C140.524 32.7511 140.5 32.7511 140.483 32.7511C140.465 32.7511 140.442 32.7511 140.424 32.7511C140.394 32.7511 140.365 32.7569 140.336 32.7569C140.306 32.7569 140.271 32.7569 140.241 32.7628C140.224 32.7628 140.194 32.7687 140.141 32.7628C140.088 32.7569 140.059 32.7569 140.041 32.7511C140.018 32.7511 139.994 32.7452 139.971 32.7511C139.947 32.7569 139.923 32.7511 139.9 32.7511H139.823C139.782 32.7393 139.747 32.7334 139.712 32.7334C139.676 32.7334 139.641 32.7275 139.6 32.7157C139.553 32.704 139.511 32.6981 139.464 32.6922C139.417 32.6863 139.376 32.6745 139.341 32.6569C139.235 32.6274 139.14 32.5921 139.058 32.545C138.746 32.4096 138.493 32.2212 138.299 31.9739C138.104 31.7267 137.951 31.4323 137.839 31.0967C137.822 31.0379 137.804 30.9731 137.792 30.9083C137.78 30.8436 137.769 30.7788 137.751 30.7082C137.739 30.6846 137.739 30.6611 137.739 30.6434C137.739 30.6257 137.739 30.6022 137.739 30.5786C137.727 30.5315 137.722 30.4844 137.722 30.4373C137.722 30.3902 137.716 30.3431 137.704 30.2961V30.1548C137.704 30.1548 137.686 30.09 137.686 30.0311C137.686 29.9722 137.686 29.931 137.704 29.9075C137.704 29.8898 137.704 29.8781 137.704 29.8604C137.704 29.8427 137.704 29.831 137.704 29.8192V29.7544C137.704 29.7132 137.71 29.672 137.716 29.6308C137.716 29.5896 137.722 29.5484 137.733 29.5072C137.745 29.4777 137.751 29.4483 137.751 29.413C137.751 29.3776 137.751 29.3482 137.769 29.3129C137.792 29.2304 137.816 29.148 137.828 29.0656C137.839 28.9832 137.863 28.9125 137.892 28.8419C137.916 28.7771 137.945 28.7124 137.969 28.6476C137.998 28.5828 138.028 28.5181 138.063 28.4651C138.14 28.3356 138.21 28.2178 138.287 28.1177C138.299 28.0942 138.322 28.0707 138.34 28.053C138.363 28.0353 138.381 28.0177 138.393 27.9882C138.422 27.947 138.452 27.9117 138.487 27.8823C138.522 27.8528 138.552 27.8234 138.587 27.7939C138.616 27.7704 138.646 27.7468 138.669 27.7233C138.693 27.6998 138.728 27.6762 138.764 27.6527C138.84 27.5997 138.917 27.5526 138.999 27.5114C139.082 27.4701 139.164 27.4348 139.258 27.3936C139.311 27.3701 139.37 27.3524 139.435 27.3406C139.494 27.3289 139.558 27.3112 139.617 27.2935C139.653 27.2935 139.682 27.2818 139.712 27.2759C139.741 27.27 139.77 27.2641 139.8 27.2641C139.841 27.2641 139.876 27.2582 139.918 27.2523C139.953 27.2523 139.994 27.2464 140.035 27.2405C140.047 27.2405 140.059 27.2405 140.071 27.2405C140.088 27.2405 140.1 27.2405 140.106 27.2405L140.082 27.2111Z" fill="#272725"/>
<path d="M147.218 27.3288C147.253 27.3288 147.294 27.3288 147.335 27.3288C147.383 27.3288 147.424 27.3288 147.465 27.3288C147.506 27.3288 147.547 27.3347 147.583 27.3465C147.618 27.3583 147.642 27.3701 147.659 27.3936C147.689 27.4348 147.706 27.4878 147.706 27.5467V31.7738C147.706 31.8385 147.712 31.8915 147.73 31.9268C147.748 31.9622 147.771 31.9916 147.812 32.0151C147.836 32.0269 147.871 32.0328 147.907 32.0328C147.942 32.0328 147.983 32.0328 148.024 32.0328H150.156C150.191 32.0328 150.226 32.0328 150.261 32.0328C150.297 32.0328 150.332 32.0328 150.362 32.0446C150.426 32.0622 150.468 32.0917 150.485 32.127C150.485 32.1447 150.497 32.1682 150.503 32.2035C150.503 32.2389 150.509 32.2742 150.515 32.3095C150.515 32.3448 150.515 32.386 150.515 32.4214C150.515 32.4567 150.503 32.4861 150.497 32.5097C150.485 32.545 150.468 32.5744 150.432 32.5921C150.409 32.6098 150.373 32.6215 150.326 32.6215H147.335C147.265 32.6215 147.206 32.6215 147.159 32.6098C147.112 32.6039 147.071 32.5803 147.047 32.5391C147.029 32.5097 147.018 32.4685 147.018 32.4214V27.6527C147.018 27.6056 147.018 27.5643 147.018 27.5172C147.018 27.4701 147.029 27.4407 147.041 27.4113C147.059 27.3818 147.1 27.3583 147.153 27.3347C147.165 27.3347 147.177 27.3289 147.188 27.3347C147.2 27.3406 147.212 27.3347 147.224 27.3347L147.218 27.3288Z" fill="#272725"/>
<path d="M158.981 32.2271C158.981 32.2271 159.004 32.2801 159.016 32.3154C159.034 32.3507 159.04 32.386 159.051 32.4214C159.057 32.4567 159.057 32.492 159.051 32.5273C159.045 32.5568 159.022 32.5803 158.987 32.598C158.963 32.6098 158.934 32.6098 158.898 32.6098H158.574C158.498 32.6098 158.439 32.598 158.392 32.5744C158.345 32.545 158.304 32.492 158.286 32.4214C158.268 32.3507 158.239 32.2801 158.215 32.2212C158.162 32.0917 158.109 31.9563 158.068 31.8209C158.021 31.6796 157.974 31.5442 157.921 31.4146C157.903 31.3675 157.892 31.3263 157.88 31.291C157.868 31.2557 157.85 31.2145 157.833 31.1791C157.815 31.1438 157.791 31.1144 157.762 31.0908C157.733 31.0673 157.691 31.0437 157.644 31.032C157.621 31.0202 157.591 31.0202 157.556 31.0202C157.521 31.0202 157.491 31.0202 157.456 31.0202H156.055C156.008 31.0202 155.961 31.0202 155.908 31.0202C155.855 31.0202 155.802 31.0202 155.754 31.0202C155.707 31.0202 155.66 31.032 155.619 31.0437C155.578 31.0555 155.548 31.0732 155.525 31.1026C155.484 31.1497 155.454 31.2086 155.437 31.2675C155.419 31.3263 155.395 31.3911 155.372 31.4559C155.325 31.5677 155.278 31.6913 155.236 31.815C155.195 31.9386 155.148 32.0564 155.101 32.1741C155.089 32.2035 155.077 32.2389 155.066 32.2742C155.054 32.3095 155.042 32.3507 155.024 32.3919C155.007 32.4331 154.995 32.4685 154.977 32.4979C154.96 32.5273 154.942 32.5509 154.924 32.5685C154.883 32.598 154.83 32.6156 154.765 32.6156C154.701 32.6156 154.63 32.6156 154.553 32.6156C154.512 32.6156 154.477 32.6156 154.436 32.6156C154.4 32.6156 154.365 32.6039 154.342 32.5803C154.318 32.5685 154.3 32.545 154.3 32.5156C154.3 32.4861 154.3 32.4567 154.306 32.4214C154.312 32.3919 154.324 32.3566 154.336 32.3272C154.347 32.2977 154.359 32.2742 154.371 32.2565C154.442 32.0976 154.5 31.9386 154.559 31.7855C154.618 31.6325 154.671 31.4735 154.736 31.3146C154.783 31.2027 154.824 31.0967 154.86 30.9908C154.901 30.8848 154.942 30.7788 154.983 30.667C155.13 30.3137 155.272 29.9487 155.407 29.5896C155.543 29.2246 155.684 28.8654 155.831 28.5004C155.884 28.3709 155.937 28.2414 155.984 28.106C156.031 27.9706 156.084 27.841 156.137 27.7115C156.161 27.6585 156.184 27.5938 156.208 27.529C156.231 27.4643 156.261 27.4113 156.308 27.3818C156.326 27.3642 156.361 27.3465 156.402 27.3347C156.414 27.3347 156.426 27.3289 156.437 27.3347C156.449 27.3406 156.461 27.3347 156.473 27.3347C156.561 27.3347 156.667 27.3347 156.785 27.3347C156.902 27.3347 156.991 27.3524 157.044 27.3877C157.085 27.4172 157.114 27.4643 157.138 27.5349C157.162 27.5997 157.185 27.6644 157.209 27.7174C157.256 27.8293 157.303 27.947 157.344 28.0589C157.385 28.1707 157.426 28.2885 157.479 28.4003C157.521 28.5004 157.556 28.6005 157.597 28.7065C157.638 28.8125 157.674 28.9125 157.721 29.0126C157.868 29.3717 158.009 29.7368 158.151 30.1077C158.286 30.4786 158.433 30.8436 158.586 31.2027C158.604 31.2498 158.622 31.291 158.633 31.3263C158.645 31.3675 158.657 31.4088 158.675 31.45C158.728 31.5795 158.781 31.709 158.834 31.8444C158.887 31.9798 158.939 32.1093 158.992 32.2389L158.981 32.2271ZM157.391 30.4256C157.438 30.4138 157.462 30.3844 157.474 30.349C157.485 30.3137 157.491 30.2784 157.479 30.2313C157.474 30.1901 157.462 30.1489 157.444 30.1077C157.426 30.0664 157.409 30.0311 157.397 30.0017C157.385 29.984 157.379 29.9664 157.379 29.9487C157.379 29.931 157.379 29.9193 157.368 29.8957C157.35 29.8545 157.338 29.8133 157.326 29.7721C157.315 29.7309 157.297 29.6897 157.279 29.6426C157.203 29.4659 157.138 29.2834 157.085 29.095C157.026 28.9066 156.961 28.73 156.891 28.5475C156.867 28.4945 156.844 28.4357 156.826 28.3827C156.808 28.3297 156.785 28.2767 156.761 28.2296C156.749 28.2061 156.738 28.1825 156.726 28.159C156.714 28.1354 156.685 28.1236 156.649 28.1236C156.638 28.1354 156.632 28.1413 156.62 28.1472C156.608 28.1472 156.602 28.159 156.59 28.1707C156.573 28.1943 156.555 28.2237 156.543 28.2473C156.532 28.2767 156.526 28.3003 156.514 28.3356C156.49 28.3886 156.467 28.4474 156.455 28.5004C156.443 28.5534 156.42 28.6123 156.396 28.6653C156.314 28.8595 156.237 29.0538 156.178 29.254C156.114 29.4542 156.043 29.6426 155.966 29.831C155.955 29.8545 155.949 29.8781 155.943 29.9075C155.937 29.931 155.925 29.9546 155.919 29.984C155.902 30.0252 155.89 30.0606 155.872 30.1018C155.855 30.143 155.843 30.1783 155.837 30.2195C155.825 30.2431 155.825 30.2725 155.825 30.3019C155.825 30.3314 155.831 30.3549 155.843 30.3785C155.866 30.4197 155.919 30.4373 155.996 30.4432C156.072 30.4491 156.149 30.4432 156.22 30.4432H157.014C157.067 30.4432 157.138 30.4432 157.215 30.4432C157.291 30.4432 157.356 30.4432 157.391 30.4256Z" fill="#272725"/>
<path d="M167.723 29.8486C167.723 29.8898 167.723 29.931 167.723 29.9781C167.723 30.0252 167.723 30.0664 167.712 30.1018V30.1783C167.712 30.1783 167.706 30.2077 167.712 30.2313C167.712 30.249 167.712 30.2666 167.712 30.2784C167.712 30.3019 167.706 30.3314 167.706 30.3549C167.706 30.3785 167.706 30.4079 167.7 30.4315C167.682 30.5021 167.676 30.5728 167.67 30.6493C167.67 30.7258 167.653 30.7965 167.623 30.8671C167.612 30.926 167.594 30.9849 167.576 31.0496C167.559 31.1144 167.535 31.1733 167.511 31.2321C167.429 31.4441 167.323 31.6384 167.194 31.8091C167.07 31.9798 166.911 32.127 166.723 32.2447C166.628 32.3036 166.528 32.3566 166.422 32.3978C166.316 32.439 166.199 32.4802 166.075 32.5215C166.022 32.5391 165.963 32.5568 165.898 32.5627C165.839 32.5686 165.775 32.5803 165.716 32.598C165.663 32.6098 165.61 32.6156 165.557 32.6156C165.504 32.6156 165.457 32.6156 165.404 32.6274H165.298C165.298 32.6274 165.268 32.6333 165.245 32.6274C165.227 32.6274 165.204 32.6274 165.186 32.6274H163.702C163.626 32.6274 163.561 32.6274 163.508 32.6156C163.449 32.6098 163.414 32.5803 163.39 32.5215C163.373 32.4802 163.361 32.4273 163.367 32.3507C163.367 32.2742 163.367 32.2094 163.367 32.1506V27.7645C163.367 27.7056 163.367 27.6409 163.367 27.5761C163.367 27.5114 163.373 27.4584 163.402 27.4172C163.42 27.3818 163.461 27.3583 163.514 27.3524C163.526 27.3524 163.532 27.3465 163.543 27.3524C163.555 27.3524 163.561 27.3524 163.573 27.3524H165.186C165.186 27.3524 165.233 27.3524 165.257 27.3524C165.28 27.3524 165.298 27.3524 165.321 27.3524C165.345 27.3642 165.374 27.3642 165.398 27.3583C165.421 27.3524 165.451 27.3583 165.474 27.3583C165.498 27.3583 165.527 27.3642 165.557 27.3642C165.586 27.3642 165.616 27.3642 165.639 27.3701C165.663 27.3701 165.686 27.376 165.71 27.376C165.733 27.376 165.757 27.376 165.781 27.3818C165.834 27.3936 165.887 27.3995 165.94 27.4054C165.987 27.4113 166.04 27.423 166.087 27.4407C166.193 27.476 166.299 27.5114 166.399 27.5408C166.499 27.5702 166.587 27.6173 166.675 27.6703C166.746 27.7115 166.805 27.7469 166.864 27.7881C166.881 27.7998 166.893 27.8116 166.911 27.8234C166.929 27.8352 166.94 27.8469 166.958 27.8587C166.987 27.8823 167.017 27.9058 167.04 27.9352L167.117 28.0118C167.117 28.0118 167.164 28.053 167.176 28.0648C167.194 28.0942 167.217 28.1236 167.241 28.1472C167.264 28.1707 167.282 28.2002 167.305 28.2296C167.329 28.259 167.352 28.2885 167.37 28.3238C167.388 28.3532 167.411 28.3886 167.435 28.4239C167.447 28.4416 167.453 28.4592 167.458 28.4769C167.458 28.4887 167.47 28.5063 167.482 28.5299C167.5 28.5711 167.517 28.6064 167.535 28.6476C167.553 28.6829 167.564 28.7241 167.588 28.7654C167.606 28.8183 167.623 28.8772 167.635 28.9302C167.647 28.9891 167.659 29.0421 167.676 29.095C167.688 29.1245 167.694 29.1539 167.694 29.1834C167.694 29.2128 167.694 29.2363 167.712 29.2717C167.735 29.36 167.753 29.4601 167.753 29.566C167.753 29.672 167.753 29.778 167.753 29.8839L167.723 29.8486ZM167.017 30.2372C167.029 30.1901 167.029 30.1371 167.029 30.0782V29.9134C167.029 29.8722 167.029 29.8368 167.029 29.7956C167.029 29.7603 167.029 29.725 167.017 29.6897C167.017 29.672 167.017 29.6602 167.017 29.6426C167.017 29.6249 167.017 29.6131 167.017 29.5896C167.005 29.5366 166.999 29.4836 166.999 29.4247C166.999 29.3659 166.987 29.3129 166.976 29.2599C166.964 29.2187 166.958 29.1834 166.952 29.1421C166.946 29.1068 166.934 29.0656 166.929 29.0244C166.876 28.8478 166.805 28.6888 166.723 28.5593C166.581 28.3356 166.381 28.1707 166.104 28.053C166.057 28.0294 166.01 28.0118 165.963 28C165.916 27.9882 165.863 27.9765 165.81 27.9588C165.757 27.947 165.698 27.9352 165.645 27.9352C165.586 27.9352 165.533 27.9294 165.48 27.9176H165.321C165.321 27.9176 165.292 27.9117 165.268 27.9117H164.303C164.303 27.9117 164.279 27.9176 164.268 27.9117C164.256 27.9117 164.238 27.9117 164.232 27.9117C164.209 27.9235 164.185 27.9294 164.162 27.9411C164.138 27.9529 164.12 27.9647 164.114 27.9882C164.109 28.0118 164.097 28.0412 164.085 28.0942V28.1531C164.085 28.1531 164.079 28.1943 164.079 28.2178V31.7267C164.079 31.7267 164.079 31.7679 164.085 31.7914V31.8503C164.097 31.8974 164.103 31.9327 164.114 31.9563C164.156 32.0151 164.226 32.0446 164.338 32.0446C164.45 32.0446 164.55 32.0446 164.65 32.0446H165.08C165.115 32.0446 165.151 32.0446 165.192 32.0446C165.233 32.0446 165.268 32.0446 165.298 32.0328H165.38C165.38 32.0328 165.433 32.0269 165.463 32.0328C165.492 32.0328 165.522 32.0328 165.551 32.0328C165.58 32.021 165.61 32.0151 165.639 32.0151C165.669 32.0151 165.698 32.0093 165.733 31.9975C165.786 31.9798 165.839 31.968 165.892 31.9504C165.945 31.9386 165.998 31.9151 166.051 31.8915C166.234 31.815 166.393 31.7031 166.522 31.5677C166.652 31.4323 166.764 31.2675 166.846 31.0791C166.87 31.0261 166.893 30.9672 166.911 30.9024C166.929 30.8436 166.946 30.7788 166.964 30.714C166.976 30.6611 166.987 30.6022 166.999 30.5374C167.011 30.4727 167.017 30.4138 167.023 30.3549C167.023 30.3314 167.029 30.3078 167.029 30.2902V30.2372H167.017Z" fill="#272725"/>
<path d="M176.666 29.8486C176.666 29.8898 176.666 29.931 176.666 29.9781C176.666 30.0252 176.666 30.0664 176.654 30.1018V30.1783C176.654 30.1783 176.649 30.2077 176.654 30.2313C176.654 30.249 176.654 30.2666 176.654 30.2784C176.654 30.3019 176.649 30.3314 176.649 30.3549C176.649 30.3785 176.649 30.4079 176.643 30.4315C176.625 30.5021 176.619 30.5728 176.613 30.6493C176.613 30.7258 176.596 30.7965 176.566 30.8671C176.554 30.926 176.537 30.9849 176.519 31.0496C176.501 31.1144 176.478 31.1733 176.454 31.2321C176.372 31.4441 176.266 31.6384 176.136 31.8091C176.013 31.9798 175.854 32.127 175.665 32.2447C175.571 32.3036 175.471 32.3566 175.365 32.3978C175.259 32.439 175.141 32.4802 175.018 32.5215C174.965 32.5391 174.906 32.5568 174.841 32.5627C174.782 32.5686 174.718 32.5803 174.659 32.598C174.606 32.6098 174.553 32.6156 174.5 32.6156C174.447 32.6156 174.4 32.6156 174.347 32.6274H174.241C174.241 32.6274 174.211 32.6333 174.188 32.6274C174.17 32.6274 174.146 32.6274 174.129 32.6274H172.645C172.569 32.6274 172.504 32.6274 172.451 32.6156C172.392 32.6098 172.357 32.5803 172.333 32.5215C172.316 32.4802 172.304 32.4273 172.31 32.3507C172.31 32.2742 172.31 32.2094 172.31 32.1506V27.7645C172.31 27.7056 172.31 27.6409 172.31 27.5761C172.31 27.5114 172.316 27.4584 172.345 27.4172C172.363 27.3818 172.404 27.3583 172.457 27.3524C172.469 27.3524 172.474 27.3465 172.486 27.3524C172.498 27.3524 172.504 27.3524 172.516 27.3524H174.129C174.129 27.3524 174.176 27.3524 174.199 27.3524C174.223 27.3524 174.241 27.3524 174.264 27.3524C174.288 27.3642 174.317 27.3642 174.341 27.3583C174.364 27.3524 174.394 27.3583 174.417 27.3583C174.441 27.3583 174.47 27.3642 174.5 27.3642C174.529 27.3642 174.559 27.3642 174.582 27.3701C174.606 27.3701 174.629 27.376 174.653 27.376C174.676 27.376 174.7 27.376 174.723 27.3818C174.776 27.3936 174.829 27.3995 174.882 27.4054C174.929 27.4113 174.982 27.423 175.03 27.4407C175.136 27.476 175.242 27.5114 175.342 27.5408C175.442 27.5702 175.53 27.6173 175.618 27.6703C175.689 27.7115 175.748 27.7469 175.807 27.7881C175.824 27.7998 175.836 27.8116 175.854 27.8234C175.871 27.8352 175.883 27.8469 175.901 27.8587C175.93 27.8823 175.96 27.9058 175.983 27.9352L176.06 28.0118C176.06 28.0118 176.107 28.053 176.119 28.0648C176.136 28.0942 176.16 28.1236 176.183 28.1472C176.207 28.1707 176.225 28.2002 176.248 28.2296C176.272 28.259 176.295 28.2885 176.313 28.3238C176.331 28.3532 176.354 28.3886 176.378 28.4239C176.39 28.4416 176.395 28.4592 176.401 28.4769C176.401 28.4887 176.413 28.5063 176.425 28.5299C176.443 28.5711 176.46 28.6064 176.478 28.6476C176.496 28.6829 176.507 28.7241 176.531 28.7654C176.549 28.8183 176.566 28.8772 176.578 28.9302C176.59 28.9891 176.601 29.0421 176.619 29.095C176.631 29.1245 176.637 29.1539 176.637 29.1834C176.637 29.2128 176.637 29.2363 176.654 29.2717C176.678 29.36 176.696 29.4601 176.696 29.566C176.696 29.672 176.696 29.778 176.696 29.8839L176.666 29.8486ZM175.96 30.2372C175.972 30.1901 175.972 30.1371 175.972 30.0782V29.9134C175.972 29.8722 175.972 29.8368 175.972 29.7956C175.972 29.7603 175.972 29.725 175.96 29.6897C175.96 29.672 175.96 29.6602 175.96 29.6426C175.96 29.6249 175.96 29.6131 175.96 29.5896C175.948 29.5366 175.942 29.4836 175.942 29.4247C175.942 29.3659 175.93 29.3129 175.919 29.2599C175.907 29.2187 175.901 29.1834 175.895 29.1421C175.889 29.1068 175.877 29.0656 175.871 29.0244C175.818 28.8478 175.748 28.6888 175.665 28.5593C175.524 28.3356 175.324 28.1707 175.047 28.053C175 28.0294 174.953 28.0118 174.906 28C174.859 27.9882 174.806 27.9765 174.753 27.9588C174.7 27.947 174.641 27.9352 174.588 27.9352C174.529 27.9352 174.476 27.9294 174.423 27.9176H174.264C174.264 27.9176 174.235 27.9117 174.211 27.9117H173.246C173.246 27.9117 173.222 27.9176 173.21 27.9117C173.199 27.9117 173.181 27.9117 173.175 27.9117C173.152 27.9235 173.128 27.9294 173.104 27.9411C173.081 27.9529 173.063 27.9647 173.057 27.9882C173.051 28.0118 173.04 28.0412 173.028 28.0942V28.1531C173.028 28.1531 173.022 28.1943 173.022 28.2178V31.7267C173.022 31.7267 173.022 31.7679 173.028 31.7914V31.8503C173.04 31.8974 173.046 31.9327 173.057 31.9563C173.099 32.0151 173.169 32.0446 173.281 32.0446C173.393 32.0446 173.493 32.0446 173.593 32.0446H174.023C174.058 32.0446 174.093 32.0446 174.135 32.0446C174.176 32.0446 174.211 32.0446 174.241 32.0328H174.323C174.323 32.0328 174.376 32.0269 174.406 32.0328C174.435 32.0328 174.464 32.0328 174.494 32.0328C174.523 32.021 174.553 32.0151 174.582 32.0151C174.612 32.0151 174.641 32.0093 174.676 31.9975C174.729 31.9798 174.782 31.968 174.835 31.9504C174.888 31.9386 174.941 31.9151 174.994 31.8915C175.177 31.815 175.336 31.7031 175.465 31.5677C175.595 31.4323 175.707 31.2675 175.789 31.0791C175.813 31.0261 175.836 30.9672 175.854 30.9024C175.871 30.8436 175.889 30.7788 175.907 30.714C175.919 30.6611 175.93 30.6022 175.942 30.5374C175.954 30.4727 175.96 30.4138 175.966 30.3549C175.966 30.3314 175.972 30.3078 175.972 30.2902V30.2372H175.96Z" fill="#272725"/>
<path d="M181.5 27.3406C181.535 27.3406 181.576 27.3406 181.617 27.3406C181.664 27.3406 181.706 27.3406 181.747 27.3406C181.788 27.3406 181.829 27.3465 181.865 27.3583C181.9 27.3701 181.923 27.3818 181.941 27.4054C181.971 27.4407 181.988 27.4878 181.988 27.5526C181.988 27.6173 181.988 27.6762 181.988 27.741V32.3978C181.988 32.4685 181.976 32.5273 181.953 32.5627C181.935 32.5862 181.912 32.6039 181.882 32.6098C181.853 32.6098 181.823 32.6215 181.782 32.6333H181.641C181.57 32.6333 181.505 32.6333 181.447 32.6274C181.388 32.6274 181.346 32.598 181.323 32.5509C181.305 32.5214 181.293 32.4802 181.293 32.4273V27.7704C181.293 27.7174 181.293 27.6527 181.293 27.5879C181.293 27.5231 181.299 27.4701 181.329 27.4289C181.346 27.3936 181.388 27.3701 181.447 27.3524C181.458 27.3524 181.464 27.3524 181.476 27.3524C181.488 27.3524 181.494 27.3524 181.505 27.3524L181.5 27.3406Z" fill="#272725"/>
<path d="M187.098 27.3288C187.187 27.3288 187.287 27.3288 187.393 27.3288C187.499 27.3288 187.581 27.3465 187.64 27.3818C187.681 27.4113 187.716 27.4525 187.752 27.5113C187.787 27.5702 187.817 27.6173 187.846 27.6644C187.911 27.7645 187.975 27.8646 188.04 27.9647C188.105 28.0648 188.17 28.1707 188.235 28.2708C188.27 28.3238 188.305 28.3768 188.341 28.4298C188.376 28.4828 188.411 28.5357 188.446 28.5887C188.594 28.8242 188.747 29.0597 188.9 29.2952C189.053 29.5307 189.206 29.7662 189.359 30.0017C189.4 30.0723 189.441 30.1371 189.489 30.196C189.536 30.2607 189.577 30.3255 189.618 30.3902C189.7 30.5256 189.789 30.6552 189.877 30.7847C189.965 30.9142 190.048 31.0437 190.136 31.1733C190.16 31.2145 190.189 31.2616 190.23 31.3204C190.272 31.3793 190.313 31.4087 190.366 31.4087C190.389 31.397 190.401 31.3911 190.401 31.3852C190.425 31.3558 190.436 31.3145 190.436 31.2616V27.7998C190.436 27.7645 190.436 27.7292 190.43 27.688C190.43 27.6468 190.431 27.6114 190.436 27.5761V27.4937C190.436 27.4937 190.454 27.4525 190.454 27.4348C190.454 27.4172 190.46 27.3995 190.472 27.3818C190.501 27.3406 190.548 27.323 190.607 27.3171C190.666 27.3171 190.731 27.3171 190.801 27.3171H190.896C190.925 27.3171 190.954 27.3171 190.984 27.3288C191.043 27.3524 191.078 27.3995 191.084 27.4584C191.09 27.5172 191.096 27.5938 191.096 27.6762V32.2271C191.096 32.2801 191.096 32.3389 191.096 32.3919C191.096 32.4449 191.09 32.4861 191.06 32.5156C191.043 32.545 191.019 32.5627 190.99 32.5685C190.96 32.5744 190.931 32.5862 190.89 32.5921H190.513C190.454 32.5921 190.401 32.5803 190.36 32.5627C190.319 32.5509 190.289 32.5214 190.266 32.4861C190.242 32.4508 190.219 32.4155 190.195 32.3801C190.154 32.3213 190.113 32.2565 190.071 32.1918C190.03 32.127 189.989 32.0622 189.948 31.9975C189.771 31.7325 189.594 31.4676 189.418 31.2027C189.247 30.9378 189.071 30.6728 188.9 30.402C188.806 30.2548 188.711 30.1077 188.611 29.9664C188.517 29.8251 188.417 29.6779 188.323 29.5307C188.158 29.2717 187.987 29.0126 187.811 28.7536C187.793 28.7182 187.769 28.6829 187.752 28.6535C187.734 28.624 187.705 28.5946 187.669 28.5652C187.658 28.5652 187.652 28.5534 187.64 28.5416C187.628 28.5299 187.616 28.5299 187.605 28.5357C187.575 28.5475 187.558 28.5652 187.552 28.5946C187.552 28.624 187.54 28.6535 187.528 28.6829V28.7359C187.516 28.7712 187.516 28.8066 187.522 28.8537C187.522 28.8949 187.528 28.9361 187.528 28.9773V32.18C187.528 32.18 187.528 32.233 187.528 32.2683C187.528 32.3036 187.528 32.333 187.516 32.3566V32.4155C187.505 32.4626 187.499 32.4979 187.487 32.5214C187.475 32.545 187.457 32.5627 187.434 32.5685C187.41 32.5744 187.381 32.5862 187.351 32.5921H187.204C187.134 32.5921 187.075 32.5921 187.016 32.5862C186.963 32.5862 186.922 32.5568 186.898 32.5214C186.875 32.492 186.863 32.4508 186.863 32.3978V27.5408C186.863 27.476 186.875 27.423 186.898 27.3818C186.916 27.3583 186.945 27.3347 186.986 27.3171C186.998 27.3171 187.01 27.3112 187.028 27.3171C187.045 27.323 187.057 27.3171 187.069 27.3171L187.098 27.3288Z" fill="#272725"/>
<path d="M198.131 27.2111C198.473 27.1993 198.773 27.2347 199.032 27.3053C199.291 27.3759 199.515 27.4819 199.715 27.6232C199.803 27.6821 199.886 27.7468 199.962 27.8234C199.974 27.8352 199.98 27.841 199.992 27.8528C200.003 27.8646 200.009 27.8705 200.021 27.8823C200.044 27.9235 200.074 27.9588 200.103 27.9882C200.133 28.0177 200.162 28.0589 200.186 28.0942C200.239 28.1766 200.286 28.2649 200.327 28.3591C200.368 28.4533 200.404 28.5475 200.445 28.6476C200.462 28.6947 200.468 28.7477 200.468 28.8007C200.468 28.8537 200.451 28.8949 200.41 28.9184C200.398 28.9302 200.386 28.9361 200.368 28.9361C200.351 28.9361 200.333 28.9361 200.321 28.942H200.268C200.268 28.942 200.203 28.9596 200.145 28.9596C200.086 28.9596 200.044 28.9596 200.021 28.942C200.003 28.942 199.992 28.942 199.974 28.942C199.956 28.942 199.944 28.942 199.921 28.9361C199.891 28.9361 199.862 28.9184 199.838 28.9008C199.809 28.8772 199.785 28.8419 199.774 28.7948C199.762 28.7477 199.744 28.7065 199.727 28.6712C199.703 28.6064 199.674 28.5475 199.638 28.4886C199.609 28.4298 199.568 28.3768 199.532 28.3238C199.521 28.312 199.509 28.3003 199.497 28.2885C199.479 28.2767 199.468 28.2649 199.462 28.2473C199.415 28.2002 199.373 28.1531 199.326 28.1236C199.303 28.1119 199.279 28.0942 199.261 28.0765C199.244 28.0589 199.22 28.0412 199.197 28.0294C199.126 27.9882 199.055 27.9529 198.973 27.9235C198.891 27.894 198.814 27.8646 198.726 27.841C198.679 27.8293 198.637 27.8234 198.59 27.8175C198.543 27.8175 198.502 27.8057 198.455 27.7939C198.437 27.7939 198.414 27.7881 198.402 27.7939C198.384 27.7939 198.367 27.7939 198.355 27.7939H198.161C198.125 27.7939 198.096 27.7939 198.066 27.7998C198.055 27.7998 198.043 27.7998 198.031 27.7998C198.013 27.7998 198.002 27.7998 197.996 27.7998C197.966 27.7998 197.937 27.8116 197.902 27.8175C197.872 27.8175 197.837 27.8293 197.807 27.8293C197.637 27.8764 197.484 27.9352 197.354 28.0177C197.148 28.1472 196.977 28.3003 196.854 28.4769C196.73 28.6535 196.624 28.8654 196.536 29.1186C196.518 29.1716 196.5 29.2304 196.489 29.2893C196.477 29.3482 196.465 29.4071 196.453 29.4659C196.441 29.4895 196.441 29.513 196.441 29.5366C196.441 29.5601 196.441 29.5837 196.43 29.6072C196.418 29.6426 196.418 29.6779 196.418 29.7132C196.418 29.7485 196.418 29.7897 196.406 29.8309V29.9134C196.406 29.9428 196.4 29.984 196.4 30.037C196.4 30.09 196.4 30.1312 196.406 30.1548V30.2313C196.406 30.2313 196.412 30.2548 196.412 30.2725C196.412 30.2902 196.412 30.3019 196.418 30.3137C196.43 30.349 196.43 30.3785 196.424 30.4079C196.424 30.4373 196.424 30.4668 196.43 30.5021C196.441 30.5433 196.447 30.5786 196.453 30.6198C196.459 30.6552 196.471 30.6964 196.477 30.7376C196.5 30.8141 196.53 30.8848 196.553 30.9554C196.583 31.0261 196.606 31.0967 196.642 31.1674C196.665 31.2262 196.695 31.2851 196.736 31.3381C196.777 31.3911 196.812 31.4441 196.854 31.4912C197.036 31.7384 197.277 31.9209 197.572 32.0387C197.607 32.0563 197.642 32.0681 197.678 32.074C197.713 32.0858 197.748 32.0917 197.79 32.1034C197.907 32.1388 198.049 32.1564 198.208 32.1564H198.308C198.337 32.1564 198.373 32.1564 198.402 32.1505C198.425 32.1388 198.455 32.1388 198.478 32.1447C198.508 32.1447 198.531 32.1447 198.555 32.1388C198.626 32.1211 198.69 32.1034 198.749 32.0917C198.808 32.0799 198.867 32.0622 198.926 32.0387C199.385 31.8562 199.697 31.5265 199.856 31.0496C199.868 31.0084 199.874 30.9731 199.88 30.9319C199.886 30.8907 199.897 30.8553 199.903 30.8141C199.921 30.7553 199.921 30.6905 199.921 30.6198C199.921 30.5492 199.891 30.4962 199.856 30.4668C199.815 30.4432 199.762 30.4315 199.691 30.4315H198.49C198.425 30.4315 198.373 30.4256 198.337 30.4079C198.296 30.3902 198.272 30.3608 198.261 30.3255C198.249 30.3078 198.243 30.2784 198.237 30.2372C198.237 30.2018 198.231 30.1606 198.231 30.1194C198.231 30.0782 198.231 30.0429 198.243 30.0017C198.249 29.9664 198.261 29.9369 198.267 29.9251C198.284 29.8898 198.32 29.8663 198.373 29.8486C198.396 29.8368 198.425 29.8368 198.461 29.8368H200.027C200.08 29.8368 200.133 29.8368 200.192 29.8368C200.245 29.8368 200.298 29.8368 200.345 29.8427C200.392 29.8486 200.433 29.8604 200.468 29.878C200.504 29.8957 200.527 29.9251 200.545 29.9722C200.557 30.0017 200.557 30.037 200.557 30.0782C200.557 30.1194 200.557 30.1548 200.557 30.196V32.4214C200.557 32.4567 200.557 32.4861 200.539 32.5097C200.521 32.5509 200.492 32.5803 200.451 32.598C200.433 32.6098 200.404 32.6098 200.357 32.6098C200.286 32.6098 200.233 32.6039 200.203 32.5862C200.168 32.5685 200.139 32.5509 200.121 32.5214C200.103 32.492 200.086 32.4567 200.074 32.4155C200.062 32.3743 200.05 32.3331 200.033 32.2801C200.021 32.2447 200.009 32.2035 199.986 32.1447C199.962 32.0858 199.927 32.0681 199.868 32.0858C199.833 32.0976 199.803 32.1093 199.785 32.1329C199.768 32.1505 199.744 32.1741 199.721 32.1918C199.679 32.2212 199.644 32.2506 199.609 32.286C199.574 32.3213 199.538 32.3448 199.497 32.3743C199.391 32.4449 199.285 32.4979 199.167 32.545C199.05 32.5921 198.926 32.6333 198.791 32.6686C198.755 32.6804 198.72 32.6863 198.685 32.6922C198.649 32.6922 198.614 32.704 198.573 32.7157C198.531 32.7157 198.502 32.7157 198.484 32.7216H198.437C198.437 32.7216 198.402 32.7216 198.39 32.7275H198.314C198.314 32.7275 198.267 32.7334 198.231 32.7334C198.196 32.7334 198.166 32.7334 198.143 32.7275H198.019C197.966 32.7157 197.913 32.7098 197.866 32.7098C197.819 32.7098 197.772 32.6981 197.719 32.6863C197.631 32.6627 197.542 32.6392 197.46 32.6215C197.378 32.6039 197.295 32.5744 197.213 32.5391C196.93 32.4096 196.683 32.2389 196.471 32.021C196.259 31.8032 196.088 31.5559 195.959 31.2675C195.935 31.2086 195.912 31.1438 195.888 31.0791C195.865 31.0143 195.841 30.9495 195.817 30.8789C195.817 30.8612 195.812 30.8377 195.812 30.8259C195.812 30.8141 195.812 30.7906 195.794 30.7729C195.782 30.7199 195.77 30.6611 195.759 30.6022C195.753 30.5433 195.741 30.4844 195.723 30.4256C195.723 30.4079 195.717 30.3844 195.723 30.3667C195.723 30.349 195.723 30.3314 195.723 30.3137V30.2489C195.723 30.2489 195.706 30.1783 195.706 30.1077C195.706 30.037 195.706 29.9899 195.723 29.9605V29.8015C195.723 29.8015 195.723 29.7426 195.729 29.7132C195.729 29.6897 195.735 29.6602 195.735 29.6367C195.735 29.6131 195.735 29.5837 195.741 29.5601C195.759 29.5013 195.764 29.4424 195.776 29.3835C195.782 29.3246 195.794 29.2658 195.812 29.2069C195.859 29.0421 195.912 28.889 195.965 28.7359C196.018 28.5828 196.082 28.4474 196.171 28.3179C196.318 28.0824 196.494 27.8881 196.701 27.7233C196.907 27.5585 197.148 27.4289 197.431 27.3347C197.484 27.3171 197.537 27.2994 197.589 27.2935C197.642 27.2876 197.695 27.2759 197.748 27.2582C197.772 27.2464 197.796 27.2464 197.819 27.2464C197.843 27.2464 197.866 27.2464 197.89 27.2405C197.931 27.2405 197.972 27.2346 198.013 27.2288C198.055 27.2288 198.096 27.2288 198.137 27.2288L198.131 27.2111Z" fill="#272725"/>
<path d="M29.7014 0H0V29.7014L12.3045 42.0059H42.0059V12.3045L29.7014 0ZM29.2128 34.9411H17.0143L8.21867 26.1455L5.92851 23.8553H17.0143L22.7309 18.1388H17.0143L5.92851 7.05887H18.127L26.5282 15.4601H37.614L26.5282 26.5458H20.8116L29.2128 34.947V34.9411Z" fill="url(#paint0_linear_416_262)"/>
</g>
<defs>
<linearGradient id="paint0_linear_416_262" x1="2.3196" y1="4.33894" x2="66.6325" y2="61.693" gradientUnits="userSpaceOnUse">
<stop stop-color="#EBA77C"/>
<stop offset="0.12" stop-color="#D37A61"/>
<stop offset="0.35" stop-color="#F2C190"/>
<stop offset="0.47" stop-color="#D37A61"/>
<stop offset="0.76" stop-color="#E69971"/>
<stop offset="0.81" stop-color="#E79D74"/>
<stop offset="0.87" stop-color="#ECAB7F"/>
<stop offset="0.89" stop-color="#EFB486"/>
<stop offset="0.92" stop-color="#EAAB80"/>
<stop offset="0.96" stop-color="#DF9371"/>
<stop offset="1" stop-color="#D37A61"/>
</linearGradient>
<clipPath id="clip0_416_262">
<rect width="200.557" height="42" fill="white"/>
</clipPath>
</defs>
</svg>
