<svg width="32" height="32" viewBox="0 0 32 32" fill="none" xmlns="http://www.w3.org/2000/svg">
<path d="M17.784 0.878237C17.2943 0.437485 16.6588 0.193604 16 0.193604C15.3412 0.193604 14.7057 0.437485 14.216 0.878237L0 13.6729V27.5396C0 28.6712 0.449522 29.7564 1.24968 30.5566C2.04983 31.3567 3.13508 31.8062 4.26667 31.8062H27.7333C28.8649 31.8062 29.9502 31.3567 30.7503 30.5566C31.5505 29.7564 32 28.6712 32 27.5396V13.6729L17.784 0.878237ZM20 29.1356H12V22.4342C12 21.3734 12.4214 20.356 13.1716 19.6058C13.9217 18.8557 14.9391 18.4342 16 18.4342C17.0609 18.4342 18.0783 18.8557 18.8284 19.6058C19.5786 20.356 20 21.3734 20 22.4342V29.1356ZM29.3333 27.5356C29.3333 27.9599 29.1648 28.3669 28.8647 28.6669C28.5646 28.967 28.1577 29.1356 27.7333 29.1356H22.6667V22.4342C22.6667 20.6661 21.9643 18.9704 20.714 17.7202C19.4638 16.4699 17.7681 15.7676 16 15.7676C14.2319 15.7676 12.5362 16.4699 11.286 17.7202C10.0357 18.9704 9.33333 20.6661 9.33333 22.4342V29.1356H4.26667C3.84232 29.1356 3.43535 28.967 3.1353 28.6669C2.83524 28.3669 2.66667 27.9599 2.66667 27.5356V14.8596L16 2.85957L29.3333 14.8596V27.5356Z" fill="white"/>
</svg>
