<svg width="30" height="29" viewBox="0 0 30 29" fill="none" xmlns="http://www.w3.org/2000/svg">
<path d="M15.2941 2.61221C19.1656 2.61221 19.6238 2.62633 21.1526 2.69693C22.5659 2.76111 23.3335 2.99731 23.8444 3.19627C24.5209 3.45942 25.0036 3.77263 25.5119 4.28095C26.0189 4.78799 26.3334 5.27062 26.5966 5.9471C26.7955 6.45799 27.0317 7.22561 27.0959 8.6389C27.1652 10.1677 27.1806 10.626 27.1806 14.4974C27.1806 18.3689 27.1652 18.8272 27.0959 20.356C27.0317 21.7693 26.7955 22.5369 26.5966 23.0478C26.3334 23.7242 26.0202 24.2069 25.5119 24.7152C25.0048 25.2222 24.5222 25.5367 23.8444 25.7999C23.3335 25.9989 22.5659 26.2351 21.1526 26.2992C19.6238 26.3686 19.1656 26.3839 15.2941 26.3839C11.4226 26.3839 10.9644 26.3686 9.43556 26.2992C8.02227 26.2351 7.25465 25.9989 6.74376 25.7999C6.06728 25.5367 5.58464 25.2222 5.07632 24.7152C4.56928 24.2082 4.25479 23.7255 3.99164 23.0478C3.79396 22.5369 3.55649 21.7693 3.49231 20.356C3.42299 18.8272 3.40758 18.3689 3.40758 14.4974C3.40758 10.626 3.42171 10.1677 3.49231 8.6389C3.55649 7.22561 3.79396 6.45799 3.99164 5.9471C4.25479 5.27062 4.56928 4.78799 5.07632 4.28095C5.58336 3.77391 6.066 3.45942 6.74376 3.19627C7.25465 2.99731 8.02227 2.76111 9.43556 2.69693C10.9644 2.62633 11.4226 2.61221 15.2941 2.61221ZM15.2941 0C11.3572 0 10.863 0.0166981 9.31618 0.0872984C7.77324 0.157899 6.71938 0.403066 5.79644 0.761202C4.84269 1.13217 4.034 1.62765 3.22787 2.43378C2.42175 3.2399 1.92626 4.04861 1.55657 5.00235C1.19844 5.924 0.953259 6.97788 0.882658 8.5221C0.812058 10.0689 0.79538 10.5618 0.79538 14.5C0.79538 18.4382 0.812058 18.9311 0.882658 20.4779C0.953259 22.0209 1.19844 23.0747 1.55657 23.9977C1.92626 24.9514 2.42175 25.7588 3.22787 26.5662C4.034 27.3723 4.84269 27.8678 5.79644 28.2388C6.71809 28.597 7.77196 28.8421 9.31618 28.9127C10.863 28.9833 11.3559 29 15.2941 29C19.231 29 19.7252 28.9833 21.272 28.9127C22.8149 28.8421 23.8688 28.597 24.7917 28.2388C25.7455 27.8678 26.5542 27.3723 27.3603 26.5662C28.1664 25.7601 28.6619 24.9514 29.0329 23.9977C29.391 23.076 29.6362 22.0221 29.7068 20.4779C29.7774 18.9311 29.7941 18.4382 29.7941 14.5C29.7941 10.5618 29.7774 10.0689 29.7068 8.5221C29.6362 6.97916 29.391 5.92529 29.0329 5.00235C28.6619 4.04861 28.1664 3.2399 27.3603 2.43378C26.5542 1.62765 25.7455 1.13217 24.7917 0.761202C23.8701 0.403066 22.8162 0.157899 21.272 0.0872984C19.7252 0.0166981 19.231 0 15.2941 0Z" fill="white"/>
<path d="M15.2941 7.05371C11.1826 7.05371 7.84894 10.3873 7.84894 14.4988C7.84894 18.6103 11.1826 21.9439 15.2941 21.9439C19.4056 21.9439 22.7392 18.6103 22.7392 14.4988C22.7392 10.3873 19.4056 7.05371 15.2941 7.05371ZM15.2941 19.3305C12.6254 19.3305 10.4612 17.1662 10.4612 14.4976C10.4612 11.8289 12.6254 9.66465 15.2941 9.66465C17.9627 9.66465 20.127 11.8289 20.127 14.4976C20.127 17.1662 17.9627 19.3305 15.2941 19.3305Z" fill="white"/>
<path d="M24.7725 6.75813C24.7725 7.71829 23.9933 8.49745 23.0332 8.49745C22.0717 8.49745 21.2938 7.71829 21.2938 6.75813C21.2938 5.79796 22.073 5.0188 23.0332 5.0188C23.9946 5.0188 24.7725 5.79796 24.7725 6.75813Z" fill="white"/>
</svg>
