<svg width="30" height="29" viewBox="0 0 30 29" fill="none" xmlns="http://www.w3.org/2000/svg">
<path d="M7.36893 9.66699H1.38507V28.9998H7.36893V9.66699Z" fill="white"/>
<path d="M4.34817 7.13489C6.30348 7.13489 7.88682 5.53611 7.88682 3.56676C7.88682 1.5974 6.30348 0 4.34817 0C2.39285 0 0.809509 1.5974 0.809509 3.56676C0.809509 5.53611 2.39285 7.13489 4.34817 7.13489Z" fill="white"/>
<path d="M16.935 18.85C16.935 16.1325 18.1856 14.5126 20.5817 14.5126C22.7827 14.5126 23.8396 16.0665 23.8396 18.85C23.8396 21.6349 23.8396 28.9985 23.8396 28.9985H29.7954C29.7954 28.9985 29.7954 21.9366 29.7954 16.7585C29.7954 11.5803 26.8603 9.07617 22.7616 9.07617C18.6615 9.07617 16.9364 12.2709 16.9364 12.2709V9.6671H11.1953V28.9999H16.9364C16.9364 28.9999 16.935 21.8286 16.935 18.85Z" fill="white"/>
</svg>
