<svg width="20" height="20" viewBox="0 0 20 20" fill="none" xmlns="http://www.w3.org/2000/svg">
<path d="M10.8185 0.836037C10.8185 0.61466 10.9065 0.40235 11.063 0.245812C11.2196 0.0892748 11.4319 0.001333 11.6532 0.001333C13.8663 0.00376332 15.988 0.883962 17.5528 2.44881C19.1177 4.01366 19.9979 6.13535 20.0003 8.34838C20.0003 8.56976 19.9123 8.78207 19.7558 8.9386C19.5993 9.09514 19.387 9.18308 19.1656 9.18308C18.9442 9.18308 18.7319 9.09514 18.5754 8.9386C18.4188 8.78207 18.3309 8.56976 18.3309 8.34838C18.3289 6.57797 17.6247 4.88064 16.3729 3.62877C15.121 2.3769 13.4237 1.67273 11.6532 1.67074C11.4319 1.67074 11.2196 1.5828 11.063 1.42626C10.9065 1.26973 10.8185 1.05741 10.8185 0.836037ZM11.6532 5.00956C12.5388 5.00956 13.388 5.36133 14.0141 5.98748C14.6403 6.61363 14.9921 7.46287 14.9921 8.34838C14.9921 8.56976 15.08 8.78207 15.2365 8.9386C15.3931 9.09514 15.6054 9.18308 15.8268 9.18308C16.0481 9.18308 16.2605 9.09514 16.417 8.9386C16.5735 8.78207 16.6615 8.56976 16.6615 8.34838C16.6601 7.02052 16.1321 5.74743 15.1931 4.80849C14.2542 3.86955 12.9811 3.34148 11.6532 3.34015C11.4319 3.34015 11.2196 3.42809 11.063 3.58463C10.9065 3.74117 10.8185 3.95348 10.8185 4.17486C10.8185 4.39623 10.9065 4.60854 11.063 4.76508C11.2196 4.92162 11.4319 5.00956 11.6532 5.00956ZM19.2432 13.9735C19.7269 14.4585 19.9986 15.1156 19.9986 15.8006C19.9986 16.4856 19.7269 17.1427 19.2432 17.6278L18.4836 18.5034C11.6474 25.0483 -4.98826 8.41682 1.45566 1.55889L2.41557 0.724187C2.90118 0.253979 3.55238 -0.00613838 4.2283 0.000110022C4.90422 0.00635842 5.55051 0.27847 6.02734 0.757575C6.05321 0.783451 7.59992 2.79258 7.59992 2.79258C8.05887 3.27473 8.31435 3.9152 8.31326 4.58086C8.31217 5.24651 8.0546 5.88614 7.59408 6.36679L6.62749 7.58212C7.16241 8.88185 7.94888 10.0631 8.94172 11.0579C9.93455 12.0527 11.1142 12.8416 12.4128 13.3791L13.6357 12.4067C14.1164 11.9466 14.7559 11.6893 15.4213 11.6883C16.0868 11.6874 16.727 11.9429 17.209 12.4017C17.209 12.4017 19.2173 13.9476 19.2432 13.9735ZM18.0947 15.1871C18.0947 15.1871 16.0972 13.6504 16.0713 13.6245C15.8994 13.454 15.667 13.3584 15.4249 13.3584C15.1827 13.3584 14.9503 13.454 14.7784 13.6245C14.7558 13.6479 13.0722 14.9893 13.0722 14.9893C12.9588 15.0796 12.8238 15.1388 12.6805 15.161C12.5372 15.1833 12.3906 15.1678 12.2551 15.1162C10.5727 14.4898 9.04457 13.5091 7.77424 12.2407C6.5039 10.9722 5.52101 9.44554 4.89214 7.76408C4.83638 7.62674 4.8182 7.47702 4.83947 7.33032C4.86074 7.18362 4.9207 7.04523 5.01317 6.92938C5.01317 6.92938 6.35454 5.24495 6.37708 5.22324C6.54758 5.05128 6.64325 4.81893 6.64325 4.57677C6.64325 4.3346 6.54758 4.10225 6.37708 3.93029C6.3512 3.90525 4.81451 1.90613 4.81451 1.90613C4.63998 1.74963 4.41219 1.66581 4.17784 1.67187C3.94349 1.67792 3.72033 1.77338 3.55411 1.93868L2.5942 2.77339C-2.11521 8.43602 12.301 22.0526 17.2633 17.3632L18.0237 16.4867C18.2019 16.3217 18.3089 16.0938 18.3222 15.8513C18.3354 15.6088 18.2538 15.3706 18.0947 15.1871Z" fill="white"/>
</svg>
