<svg width="42" height="41" viewBox="0 0 42 41" fill="none" xmlns="http://www.w3.org/2000/svg">
<rect x="10" y="9" width="32" height="32" rx="4" fill="#CD7F32" fill-opacity="0.2"/>
<path d="M24.8746 1.23989L8.61865 17.4959C7.99777 18.1134 7.50556 18.848 7.17049 19.657C6.83543 20.466 6.66418 21.3335 6.66665 22.2092V23.9999C6.66665 24.3535 6.80713 24.6926 7.05718 24.9427C7.30722 25.1927 7.64636 25.3332 7.99998 25.3332H9.79065C10.6663 25.3357 11.5338 25.1644 12.3429 24.8294C13.1519 24.4943 13.8865 24.0021 14.504 23.3812L30.76 7.12522C31.5392 6.34411 31.9767 5.28585 31.9767 4.18256C31.9767 3.07926 31.5392 2.021 30.76 1.23989C29.9675 0.482417 28.9135 0.0596924 27.8173 0.0596924C26.7211 0.0596924 25.6671 0.482417 24.8746 1.23989ZM28.8746 5.23989L12.6186 21.4959C11.8668 22.2431 10.8507 22.6638 9.79065 22.6665H9.33332V22.2092C9.3361 21.1492 9.75674 20.133 10.504 19.3812L26.76 3.12522C27.0448 2.85316 27.4235 2.70135 27.8173 2.70135C28.2112 2.70135 28.5899 2.85316 28.8746 3.12522C29.1546 3.40591 29.3118 3.78614 29.3118 4.18256C29.3118 4.57897 29.1546 4.9592 28.8746 5.23989Z" fill="#CD7F32"/>
<path d="M30.6666 11.972C30.313 11.972 29.9739 12.1125 29.7238 12.3625C29.4738 12.6126 29.3333 12.9517 29.3333 13.3053V20H24C22.9391 20 21.9217 20.4214 21.1716 21.1716C20.4214 21.9217 20 22.9391 20 24V29.3333H6.66666C5.6058 29.3333 4.58838 28.9119 3.83824 28.1617C3.08809 27.4116 2.66667 26.3942 2.66667 25.3333V6.66666C2.66667 5.6058 3.08809 4.58838 3.83824 3.83824C4.58838 3.08809 5.6058 2.66666 6.66666 2.66666H18.7227C19.0763 2.66666 19.4154 2.52619 19.6655 2.27614C19.9155 2.02609 20.056 1.68695 20.056 1.33333C20.056 0.97971 19.9155 0.640572 19.6655 0.390524C19.4154 0.140476 19.0763 0 18.7227 0L6.66666 0C4.8992 0.00211714 3.20474 0.705175 1.95496 1.95496C0.705176 3.20474 0.00211714 4.8992 0 6.66666L0 25.3333C0.00211714 27.1008 0.705176 28.7952 1.95496 30.045C3.20474 31.2948 4.8992 31.9979 6.66666 32H21.7907C22.6665 32.0025 23.5342 31.8312 24.3435 31.4962C25.1528 31.1611 25.8875 30.6689 26.5053 30.048L30.0466 26.504C30.6676 25.8865 31.16 25.152 31.4953 24.3429C31.8306 23.5339 32.0021 22.6664 32 21.7906V13.3053C32 12.9517 31.8595 12.6126 31.6095 12.3625C31.3594 12.1125 31.0203 11.972 30.6666 11.972ZM24.62 28.1626C24.084 28.6973 23.4062 29.0674 22.6667 29.2293V24C22.6667 23.6464 22.8071 23.3072 23.0572 23.0572C23.3072 22.8071 23.6464 22.6666 24 22.6666H29.2333C29.0684 23.4047 28.6987 24.0812 28.1667 24.6186L24.62 28.1626Z" fill="#CD7F32"/>
</svg>
