<svg width="13" height="12" viewBox="0 0 13 12" fill="none" xmlns="http://www.w3.org/2000/svg">
<path d="M7.82986 6.00019L11.676 2.15407L12.4691 1.36092C12.5861 1.24391 12.5861 1.05378 12.4691 0.93678L11.6205 0.0881278C11.5035 -0.0288758 11.3133 -0.0288758 11.1963 0.0881278L6.55707 4.7274L1.9178 0.0877527C1.8008 -0.0292509 1.61067 -0.0292509 1.49366 0.0877527L0.644638 0.936404C0.527634 1.05341 0.527634 1.24354 0.644638 1.36054L5.28428 6.00019L0.644638 10.6395C0.527634 10.7565 0.527634 10.9466 0.644638 11.0636L1.49329 11.9122C1.61029 12.0293 1.80042 12.0293 1.91743 11.9122L6.55707 7.27298L10.4032 11.1191L11.1963 11.9122C11.3133 12.0293 11.5035 12.0293 11.6205 11.9122L12.4691 11.0636C12.5861 10.9466 12.5861 10.7565 12.4691 10.6395L7.82986 6.00019Z" fill="#272725"/>
</svg>
