<svg width="44" height="29" viewBox="0 0 44 29" fill="none" xmlns="http://www.w3.org/2000/svg">
<path d="M42.4392 4.52924C41.9506 2.74629 40.5094 1.34359 38.6785 0.865897C35.3619 -1.24745e-05 22.0608 0 22.0608 0C22.0608 0 8.75961 -1.24745e-05 5.44299 0.865897C3.61381 1.34199 2.17259 2.74629 1.68228 4.52924C0.794101 7.75962 0.794098 14.5 0.794098 14.5C0.794098 14.5 0.794101 21.2403 1.68228 24.4707C2.17094 26.2537 3.61216 27.6564 5.44299 28.1341C8.75961 29 22.0608 29 22.0608 29C22.0608 29 35.3619 29 38.6785 28.1341C40.5094 27.658 41.9506 26.2537 42.4392 24.4707C43.3274 21.2403 43.3274 14.5 43.3274 14.5C43.3274 14.5 43.3291 7.75962 42.4392 4.52924ZM17.7123 20.6205V8.38111L28.8294 14.5016L17.7123 20.6205Z" fill="white"/>
</svg>
